STARTFONT 2.1
FONT -xmbdfed-Unknown-Medium-R-Normal--15-120-90-90-P-100-FontSpecific-0
SIZE 12 90 90
FONTBOUNDINGBOX 42 35 0 -4
STARTPROPERTIES 9
POINT_SIZE 120
PIXEL_SIZE 15
RESOLUTION_X 90
RESOLUTION_Y 90
FONT_ASCENT 12
FONT_DESCENT 3
AVERAGE_WIDTH 100
SPACING "P"
_XMBDFED_INFO "Edited with xmbdfed 4.5."
ENDPROPERTIES
CHARS 345
STARTCHAR hoy-geez
ENCODING 4608
SWIDTH 1200 0
DWIDTH 20 0
BBX 16 22 0 0
BITMAP
001E
003E
7C3E
7C1F
7C1F
7C1F
7C1F
7C1F
7C1F
7C1F
7C1F
7C1F
FC3E
F83E
F83E
F83C
F87C
F878
F878
7CF0
7FC0
0F00
ENDCHAR
STARTCHAR hoy-kaib
ENCODING 4609
SWIDTH 1733 0
DWIDTH 28 0
BBX 24 20 0 0
BITMAP
003C00
007E00
007E00
783E00
F83E00
F83E0E
783E7E
F83FFE
F83E3E
F83E3F
F83E1E
F83E00
F83C00
F83C00
F87C00
F87800
F87000
F8E000
7DC000
3F0000
ENDCHAR
STARTCHAR hoy-salis
ENCODING 4610
SWIDTH 1333 0
DWIDTH 22 0
BBX 18 26 0 -1
BITMAP
003E00
383E00
F83E00
F83E00
F87E00
F87C00
F87C00
F8FC00
F8F800
FFF800
F9F000
03F000
03F000
03E000
07E000
07C000
0FC000
0F8000
1F8000
1F8000
1F0180
1F0780
1F0F80
1FFFC0
000FC0
0007C0
ENDCHAR
STARTCHAR hoy-rabi
ENCODING 4611
SWIDTH 1066 0
DWIDTH 18 0
BBX 14 23 0 0
BITMAP
007C
F87C
F87C
F87C
F87C
F8FC
F8FC
F9F8
F9F8
FFF0
FFF0
03E0
07E0
07E0
0FC0
0FC0
1F80
1F80
1F00
3E00
3E00
3E00
1E00
ENDCHAR
STARTCHAR hoy-hamis
ENCODING 4612
SWIDTH 1333 0
DWIDTH 22 0
BBX 18 24 0 1
BITMAP
001F00
7C3F00
FC3F00
7C3F00
7C3F00
7C7E00
7C7E00
7CFE00
7CFC00
7FFC00
7DFC00
01F000
03F000
03E000
07E000
07C000
0F87C0
0F8FC0
1F07C0
1F07C0
3E0FC0
3E1F80
3FE000
1E0000
ENDCHAR
STARTCHAR hoy-sadis
ENCODING 4613
SWIDTH 1200 0
DWIDTH 20 0
BBX 16 21 0 0
BITMAP
001F
001F
F81F
F81F
F81F
F81F
F81F
F81F
FC1F
3C1F
7C1F
7C1F
7C1F
781F
F81E
F83E
F83C
F838
7C70
3FC0
1E00
ENDCHAR
STARTCHAR hoy-sabi
ENCODING 4614
SWIDTH 1600 0
DWIDTH 26 0
BBX 22 23 0 0
BITMAP
000078
000FFC
003E7C
003E7C
F83E7C
F83E78
F83E70
F83FC0
F83E00
F83E00
F83E00
F83E00
F83E00
F83E00
F83C00
F83C00
F83C00
F87C00
F87800
F87800
787000
3FC000
1E0000
ENDCHAR
STARTCHAR lawi-geez
ENCODING 4616
SWIDTH 1200 0
DWIDTH 20 0
BBX 16 23 0 0
BITMAP
01C0
03C0
03E0
01E0
03F0
07F8
0FFC
1FFC
3F7C
3E3C
3E3E
7C3E
7C3E
783E
F83E
F83E
F83E
F83E
F83E
F83E
F83E
F83E
781F
ENDCHAR
STARTCHAR lawi-kaib
ENCODING 4617
SWIDTH 1666 0
DWIDTH 27 0
BBX 23 23 0 0
BITMAP
03C000
03E000
03E000
01F000
07F800
0FFC00
0FFC00
1FFC00
3F3E00
3E3E00
3E3E00
7C3E0C
7C3FFE
783E3E
783E1E
F83E1E
F83E00
F83E00
F83E00
F83E00
F83F00
FC3F00
7C1F00
ENDCHAR
STARTCHAR lawi-salis
ENCODING 4618
SWIDTH 1666 0
DWIDTH 27 0
BBX 23 25 0 -1
BITMAP
03E000
07E000
07F000
03F000
03F800
07FC00
0FFC00
1FFE00
1FFE00
3F3E00
3E3F00
7E1F00
7C1F00
7C1F00
F81F00
F81F00
F81F00
F81F00
F81F00
F81F0E
F81F9E
F80FFE
780FFE
00001E
00000E
ENDCHAR
STARTCHAR lawi-rabi
ENCODING 4619
SWIDTH 1133 0
DWIDTH 19 0
BBX 15 24 0 0
BITMAP
07E0
07E0
07E0
07F0
0FF0
1FF8
3FF8
3FF8
7EFC
7C7C
FC7C
F83E
F83E
F83E
F83E
F83C
F83C
007C
007C
007C
007C
003E
003E
003E
ENDCHAR
STARTCHAR lawi-hamis
ENCODING 4620
SWIDTH 1800 0
DWIDTH 29 0
BBX 25 23 0 1
BITMAP
01C00000
07E00000
03F00000
03F00000
07F80000
0FFC0000
0FFC0000
1FFE0000
3F3E0000
3E3E0000
7E1F0000
7C1F0000
7C1F0000
7C1F0000
781F0000
F81F7E00
F81FFF00
F81F0F80
F81F0F80
F81F0F80
F81F8F00
FC0FFE00
780FF800
ENDCHAR
STARTCHAR lawi-sadis
ENCODING 4621
SWIDTH 1600 0
DWIDTH 26 0
BBX 22 23 0 0
BITMAP
00C000
03E000
03F000
03F800
01FC00
03FE00
07FF00
0FFF00
1F9F80
1F0FC0
3E07C0
3E07C0
7C07E0
7C43E0
7FF3E0
FFF1E0
F9F1F0
F9F1F0
F9F1F0
F9E0F8
FF00FC
F800FC
700078
ENDCHAR
STARTCHAR lawi-sabi
ENCODING 4622
SWIDTH 1866 0
DWIDTH 30 0
BBX 26 23 0 0
BITMAP
03800000
0F800000
0FC00000
07E00000
0FF00000
1FF81F80
1FF8F7C0
3FFBF7C0
3EFCF3C0
7C7CF3C0
7C7CF3C0
FC7C7F00
F87C7000
F87C0000
F87C0000
F87C0000
F87C0000
F87E0000
F83E0000
F83E0000
F81F0000
F81F0000
780E0000
ENDCHAR
STARTCHAR lawi-zemede-rabi
ENCODING 4623
SWIDTH 1533 0
DWIDTH 25 0
BBX 21 25 0 0
BITMAP
03C000
07E000
07E000
07F000
1FF800
3FF800
3FF800
7EFC00
7C7C00
FC7C00
F87C00
F87C00
F87C00
F87C00
007C00
007C00
007C00
007C00
007C00
007C00
7FFC00
7FFFF8
7E00F8
7C00F8
F800F8
ENDCHAR
STARTCHAR hawt-geez
ENCODING 4624
SWIDTH 1800 0
DWIDTH 29 0
BBX 25 22 0 0
BITMAP
000F8000
000F8000
000F8000
000F8000
000F8000
000F8000
000F8000
000F8000
000F9C00
007FFE00
0FBE1F00
1F3E1F00
3E3E1F00
7C3E1F00
7C3E1F00
FC3E1F00
F83E1F00
F83E0F00
F83E0F00
F83E0F00
F83E0F80
F83E0F80
ENDCHAR
STARTCHAR hawt-kaib
ENCODING 4625
SWIDTH 2133 0
DWIDTH 34 0
BBX 30 21 0 0
BITMAP
001E0000
003F0000
000F0000
000F0000
000E0000
001E0000
001E0000
001E0000
003E0000
003FFE00
01FE7F3C
0F3E3FFC
3E3C1F7C
7C3C1F7C
7C3C1F3C
FC7C1F00
F87C1F00
F87C1F00
F87C1F00
F87C1F00
F87C1F80
ENDCHAR
STARTCHAR hawt-salis
ENCODING 4626
SWIDTH 2200 0
DWIDTH 35 0
BBX 31 24 0 -2
BITMAP
001F8000
001F8000
000F8000
000F8000
000F8000
000F8000
000F8000
001F8000
001FBE00
001FFF00
01FF3F00
0F9F1F80
1F1F0F80
3E1F0F80
3E1F0F80
7C1E0F80
7C1E0F80
FC3E0F80
F83E0F8E
F83E0F9E
FC3E0FFC
7C3E07FE
0000003E
0000000E
ENDCHAR
STARTCHAR hawt-rabi
ENCODING 4627
SWIDTH 1800 0
DWIDTH 29 0
BBX 25 22 0 0
BITMAP
001F8000
001F8000
000F8000
000F8000
000F8000
000F8000
001F8000
001F0000
001F0000
001FFE00
03FFFF00
0FBF3F00
3F3E1F00
7E3E1F80
7C7E1F80
FC7E1F80
FC7E1F80
FC7E1F00
00001F00
00001F80
00001F80
00001F80
ENDCHAR
STARTCHAR hawt-hamis
ENCODING 4628
SWIDTH 2266 0
DWIDTH 36 0
BBX 32 22 0 0
BITMAP
000F8000
000F8000
000F8000
000F8000
000F8000
000F8000
000F8000
000F8000
000F8000
001FFF00
03FF1F80
0F9F0F80
3F1F0F80
3E1F0F80
7C1F0FFE
FC3F0F9F
FC3F0F8F
F83F0F8F
F83F0F8F
F83E0F8F
F83E0FBE
FC3F0FF8
ENDCHAR
STARTCHAR hawt-sadis
ENCODING 4629
SWIDTH 1733 0
DWIDTH 28 0
BBX 24 23 0 0
BITMAP
03C000
03E000
03E000
03E100
03FF00
001F00
001E00
001E00
001E00
001F3C
001FFE
01FE3E
07FE3F
1FBE1F
3F3E1F
7E3E1F
7C3E1F
7C3E1F
FC3E1F
F83E1F
F83E1F
F83E1F
783E1F
ENDCHAR
STARTCHAR hawt-sabi
ENCODING 4630
SWIDTH 1800 0
DWIDTH 29 0
BBX 25 21 0 0
BITMAP
000F8000
000F8000
000F8000
000F8000
000F8000
000F8000
000F8000
000F8000
000F9C00
001FFE00
03FF3F00
1F8F1F00
3E1F1F00
7E1F1F00
7C1F1F00
FC1F0F00
F81F0F80
F81C0F80
F8000000
F8000000
F8000000
ENDCHAR
STARTCHAR hawt-zemede-rabi
ENCODING 4631
SWIDTH 2266 0
DWIDTH 36 0
BBX 32 26 0 -4
BITMAP
001F8000
001F8000
000F8000
000F8000
000F8000
000F8000
001F8000
001F0000
001F0000
001FFE00
03FFFF00
0FBF3F00
3F3E1F00
7E3E1F80
7C7E1F80
FC7E1F80
FC7E1F80
FC7E1F00
00001F00
00001F80
00001F80
00001F80
001FFFFF
001F803F
001F801F
003F000F
ENDCHAR
STARTCHAR may-geez
ENCODING 4632
SWIDTH 2133 0
DWIDTH 34 0
BBX 30 13 0 6
BITMAP
01FFFFE0
078F9F7C
1F0F9E7C
3E1F3E7C
3C1F3E7C
7C3E3C7C
F83E7C7C
F87C7C7C
F8FC7C78
F8F87CF0
F9F07FE0
FFF03F00
7FC00000
ENDCHAR
STARTCHAR may-kaib
ENCODING 4633
SWIDTH 2533 0
DWIDTH 40 0
BBX 36 14 0 5
BITMAP
003FFFC000
0FFDFBE000
1E7DF1F000
1E7DF1F000
7C7DF1F1F0
7879F1FFF0
F8F9F1F3E0
F8F9F1E3F0
F8F9F3E1F0
F9F1FF8000
F9F0FE0000
F9E0000000
FFE0000000
3F80000000
ENDCHAR
STARTCHAR may-salis
ENCODING 4634
SWIDTH 2266 0
DWIDTH 36 0
BBX 32 24 0 -1
BITMAP
00FFFFC0
0FFFFFE0
1EF9F1F0
7CF9F1F0
7CF9F1F0
F8F9F3E0
F9F9F3E0
F9F1FFE0
F9F0FFC0
FBF007C0
FFC007C0
78000FC0
00000F80
00000F80
00001F80
00001F00
00003F00
00003F00
00007E1F
00007E7E
00007FFE
00003FFE
0000007F
0000003E
ENDCHAR
STARTCHAR may-rabi
ENCODING 4635
SWIDTH 1933 0
DWIDTH 31 0
BBX 27 23 0 0
BITMAP
00FFFFC0
0FFFFFE0
1EFDF3E0
7CF9F3E0
7CF9F3E0
F8F9F3E0
F9F9F3E0
F9F1FFE0
F9F0FFC0
FBF007C0
FFC007C0
7C000FC0
00000F80
00000F80
00001F80
00001F00
00001F00
00003F00
00007E00
00007E00
00007E00
00007C00
00003C00
ENDCHAR
STARTCHAR may-hamis
ENCODING 4636
SWIDTH 2266 0
DWIDTH 36 0
BBX 32 22 0 1
BITMAP
0000FFF0
01FFFFF8
0F3EF8F8
1E3EF8F8
3C3EF8F8
7C7EF8F8
FC7CF8F8
F87CF9F8
F8FCFFF0
F8F801F0
F9F803E0
7FC003E0
000007E0
000007C0
00000FC0
00000F80
00000FFF
00001F1F
00001F1F
00003F1F
00003F3E
00001FF8
ENDCHAR
STARTCHAR may-sadis
ENCODING 4637
SWIDTH 1933 0
DWIDTH 31 0
BBX 27 22 0 0
BITMAP
001FFF80
03FDFFC0
1C7DF3E0
3C7DF3E0
787DF3E0
787DF3E0
F87DF3E0
F87CFBE0
F87CFF80
F8FC0000
7FF80000
03F80000
03F00000
07F00000
0FE00000
1FC00000
1F800000
3F000000
7E000000
7C000000
FC000000
FC000000
ENDCHAR
STARTCHAR may-sabi
ENCODING 4638
SWIDTH 1866 0
DWIDTH 30 0
BBX 26 22 0 0
BITMAP
0003FF80
01FFEF80
0E7DE7C0
1C7DE7C0
3C7DE3C0
787DE3C0
F8F9E3C0
F8F9E3C0
F8F9F380
F8F8FF00
FBF8F800
7DF00000
01F00000
01F00000
01F00000
01F00000
01F00000
03E00000
03E00000
03E00000
03E00000
03E00000
ENDCHAR
STARTCHAR may-zemede-rabi
ENCODING 4639
SWIDTH 2066 0
DWIDTH 33 0
BBX 29 26 0 0
BITMAP
00FFFF80
0FFFFFC0
3E7DF3E0
7E7DF3E0
7CF9F3E0
FCF9F3E0
F8F9F3E0
F9F9F7E0
F9F0FFC0
FFF00FC0
7F800F80
00000F80
00000F80
00001F00
00001F00
00003E00
00003E00
00007C00
00007C00
00007C00
00007C00
007FFFF0
007E01F8
007E01F8
00FC00F8
00F80078
ENDCHAR
STARTCHAR sewt-geez
ENCODING 4640
SWIDTH 1800 0
DWIDTH 29 0
BBX 25 13 0 5
BITMAP
3E0F8F80
3E0F8F80
3E0F8F80
3E1F8F80
3E1F0F80
7C3F0F80
7C3F0F00
FC3F9F00
FC7FFC00
F87FE000
F8FC0000
FFF00000
7E000000
ENDCHAR
STARTCHAR sewt-kaib
ENCODING 4641
SWIDTH 2133 0
DWIDTH 34 0
BBX 30 14 0 2
BITMAP
000F0000
3E1F0F80
7E1F0F80
3E1F0F80
3E3F0F80
7C3F0F80
7C3F0F80
7C3F0FF8
F87F9FF8
F87FFC7C
F87FC07C
F8F8003C
F8F00000
FFE00000
ENDCHAR
STARTCHAR sewt-salis
ENCODING 4642
SWIDTH 1933 0
DWIDTH 31 0
BBX 27 23 0 -3
BITMAP
00001C00
3E3E3E00
3E3E3E00
3E3E3E00
7E3E3E00
7C3F7C00
FC7FFC00
FCF9FC00
FFE0F800
0000F800
0000F800
0000F800
0001F800
0001F000
0001F000
0003F000
0003E000
0003E1E0
0003E3E0
0001FFC0
000003C0
000003E0
000001E0
ENDCHAR
STARTCHAR sewt-rabi
ENCODING 4643
SWIDTH 1733 0
DWIDTH 28 0
BBX 24 21 0 0
BITMAP
00001F
3E1F1F
3E1F1F
3E1F1F
7E1F1F
7C1F9F
7C1FDE
FFF83E
7FC03C
00003C
00007C
000078
000078
0000F8
0000F8
0001F0
0001F0
0001F0
0001F0
0001F0
0000F0
ENDCHAR
STARTCHAR sewt-hamis
ENCODING 4644
SWIDTH 2000 0
DWIDTH 32 0
BBX 28 20 0 0
BITMAP
00003E00
7C7C3E00
7C7C3E00
7C7C3E00
7C7C7E00
F87E7E00
F8FFFC00
F9F3FC00
FF80FC00
0000F800
0001F800
0001F800
0001F000
0003FFE0
0003E1F0
0003E1F0
0003E1F0
0003E1F0
0003E1E0
0003FF00
ENDCHAR
STARTCHAR sewt-sadis
ENCODING 4645
SWIDTH 2333 0
DWIDTH 37 0
BBX 33 19 0 0
BITMAP
003E1F0F80
003E1F0F80
003E1F0F80
007C1F0F80
00FC3E0F00
00F83E1F00
01F87F1E00
03F8FBF800
07EFC00000
07C0000000
0FC0000000
1F80000000
1F00000000
3F00000000
7E00000000
7C00000000
F800000000
F800000000
7800000000
ENDCHAR
STARTCHAR sewt-sabi
ENCODING 4646
SWIDTH 1666 0
DWIDTH 27 0
BBX 23 21 0 0
BITMAP
00003C
7C3E3E
7C3E3E
7C3E3C
7C7E3C
F87C38
F8FE70
F9FFC0
FFF000
FBF000
03E000
07C000
0FC000
0F8000
1F8000
1F0000
3E0000
7E0000
7C0000
7C0000
7C0000
ENDCHAR
STARTCHAR sewt-zemede-rabi
ENCODING 4647
SWIDTH 2000 0
DWIDTH 32 0
BBX 28 25 0 -4
BITMAP
00001F00
3E1F1F00
3E1F1F00
3E1F1F00
7E1F1F00
7C1F9F00
7C1FDE00
FFF83E00
7FC03C00
00003C00
00007C00
00007800
00007800
0000F800
0000F800
0001F000
0001F000
0001F000
0001F000
0001F000
0000F000
01FFFFF0
01F803F0
01F801F0
03F000F0
ENDCHAR
STARTCHAR ris-geez
ENCODING 4648
SWIDTH 1266 0
DWIDTH 21 0
BBX 17 23 0 0
BITMAP
003E00
003E00
003E00
003E00
003E00
007C00
00F800
01F800
03F000
03C000
078000
1F8000
3F0000
3E0000
7C0000
7C0000
F80000
F80700
F81F00
F81F00
FC3F00
7FFF80
3F1F80
ENDCHAR
STARTCHAR ris-kaib
ENCODING 4649
SWIDTH 1400 0
DWIDTH 23 0
BBX 19 22 0 0
BITMAP
01F000
01F000
01F000
03F000
03E000
0FC000
3F0000
7E0000
FC0000
FC0000
F80000
FC07E0
7C0FE0
01F7E0
03E3E0
03E3E0
03E000
03E000
03E000
03E000
03E000
03E000
ENDCHAR
STARTCHAR ris-salis
ENCODING 4650
SWIDTH 1333 0
DWIDTH 22 0
BBX 18 23 0 0
BITMAP
000F00
001F00
003F00
003F00
003F00
007E00
00FE00
00FC00
01F800
03E000
07C000
0F8000
3F0000
3F0180
7E0FC0
FE0FC0
FC07C0
FC0F80
FC0F80
FC3E00
7FF000
3F0000
1C0000
ENDCHAR
STARTCHAR ris-rabi
ENCODING 4651
SWIDTH 1866 0
DWIDTH 30 0
BBX 26 24 0 0
BITMAP
00078000
001FC000
000FC000
000F8000
001F8000
003F0000
007F0000
007E0000
00FC0000
01F80000
03F00000
07C00000
0FC007C0
1F80FFC0
3F07C7C0
7E0F87C0
7E1F83C0
7E3F0000
FC3F0000
7C3F0000
7E3E0000
7FF80000
3FC00000
0F000000
ENDCHAR
STARTCHAR ris-hamis
ENCODING 4652
SWIDTH 1600 0
DWIDTH 26 0
BBX 22 23 0 0
BITMAP
000F00
003F00
003F00
003F00
003E00
007E00
00FC00
01F800
03F000
07E000
0FC000
1F8000
3F0010
7E03F8
7C3EFC
FC7C7C
F87C7C
F87C7C
F87C78
FC7FE0
7FFE00
7F0000
380000
ENDCHAR
STARTCHAR ris-sadis
ENCODING 4653
SWIDTH 1333 0
DWIDTH 22 0
BBX 18 22 0 0
BITMAP
01FFC0
078FC0
1F0FC0
1E0FC0
3E07C0
3E0000
7C0000
7C0000
7C0000
7C0000
780000
F80000
F80000
F80000
F80000
F80700
F81F00
F83E00
7C7F00
3FBF00
181F00
001F00
ENDCHAR
STARTCHAR ris-sabi
ENCODING 4654
SWIDTH 1600 0
DWIDTH 26 0
BBX 22 23 0 0
BITMAP
0003F0
003E7C
00FC7C
0F7C7C
1E7C7C
3E7C7C
3C3E78
7C3FE0
7C1800
7C0000
7C0000
F80000
F80000
F80000
F80000
F80000
F80000
F80F00
F81F00
FC3F00
7FFF80
3C0F80
000F80
ENDCHAR
STARTCHAR ris-zemede-rabi
ENCODING 4655
SWIDTH 1800 0
DWIDTH 29 0
BBX 25 24 0 0
BITMAP
0F000000
0F800780
07C00F80
07C00F80
07FFFF80
001FFF00
001F8000
003F0000
007F0000
00FC0000
03F80000
0FE00000
0FC00000
1F800000
3F000000
7E07FF00
7C1F9F00
FC3F1F00
F87E1F00
F87C0F00
F87C0000
FCFC0000
7FFC0000
3C000000
ENDCHAR
STARTCHAR sat-geez
ENCODING 4656
SWIDTH 1133 0
DWIDTH 19 0
BBX 15 24 0 0
BITMAP
03C0
03C0
03C0
03C0
03C0
03F8
0E7C
3C3C
7C3E
783E
F83E
F83E
F83E
F83E
F83E
F83E
F83E
F83E
F83E
F83E
F83E
F83E
F83E
781E
ENDCHAR
STARTCHAR sat-kaib
ENCODING 4657
SWIDTH 1666 0
DWIDTH 27 0
BBX 23 25 0 0
BITMAP
01F000
03F000
01F000
01E000
01F000
03FC00
0E3E00
3C1F00
7C1F00
780F80
F80F80
F80F8C
F81FFC
F81FBC
F81F3E
F81F3E
F81F1E
F81F00
F81F00
F81F00
F81F00
F81F00
F81F00
F81F00
700F00
ENDCHAR
STARTCHAR sat-salis
ENCODING 4658
SWIDTH 1600 0
DWIDTH 26 0
BBX 22 26 0 -1
BITMAP
00F000
03F000
01F000
01F000
01E000
03FC00
0FFE00
1E3E00
3C1F00
7C1F00
F81F00
F81F00
F81F00
F81F00
F81F00
F81F00
F81F00
F81F00
F81F00
F81F00
F81F1C
F81F3C
FC1FF8
F80F7C
00007C
00003C
ENDCHAR
STARTCHAR sat-rabi
ENCODING 4659
SWIDTH 1200 0
DWIDTH 20 0
BBX 16 24 0 1
BITMAP
03E0
03E0
03E0
03E0
03E0
03FC
0FFE
3C1F
7C1F
7C1F
F81F
F81F
F81F
F81F
F81F
F81F
F81F
F81F
001F
001F
001F
001F
001F
001F
ENDCHAR
STARTCHAR sat-hamis
ENCODING 4660
SWIDTH 1666 0
DWIDTH 27 0
BBX 23 25 0 0
BITMAP
01F000
01F000
01F000
01F000
01F000
03FC00
0F7E00
1E1F00
3E1F00
7C1F00
7C1F00
7C1F00
7C1F00
7C1F00
7C1F00
F81F00
F81FF8
F81FFC
F81F3E
F81F3E
F81F3E
FC1F3E
7C1F7C
781FC0
301F00
ENDCHAR
STARTCHAR sat-sadis
ENCODING 4661
SWIDTH 1200 0
DWIDTH 20 0
BBX 16 24 0 0
BITMAP
0780
0F80
0FC0
07C0
07E0
07FC
1E3E
3C1E
3C1F
7C1F
F81F
F81F
F81F
F81F
F81F
F81F
F81E
F81E
F81E
F81E
F81E
F81E
F81E
781E
ENDCHAR
STARTCHAR sat-sabi
ENCODING 4662
SWIDTH 1200 0
DWIDTH 20 0
BBX 16 23 0 0
BITMAP
01F0
01F0
01F0
01F0
01F0
07FC
1E3E
3C1F
7C1F
7C1F
F81F
F81F
F81F
F81F
F81F
F81F
F81F
F80F
F800
F800
F800
F800
F800
ENDCHAR
STARTCHAR sat-zemede-rabi
ENCODING 4663
SWIDTH 1600 0
DWIDTH 26 0
BBX 22 26 0 0
BITMAP
01F000
01F000
01F000
01F000
01F000
1FF800
3F1F80
3E1F00
3E1F00
3E1F00
3E1F00
3E1F00
7E3F00
7E3E00
7C3E00
7C3E00
7C3E00
7C7E00
7C7C00
007C00
007C00
007C00
7FFFFC
7E00FC
7E007C
FC003C
ENDCHAR
STARTCHAR sha-sat-geez
ENCODING 4664
SWIDTH 1333 0
DWIDTH 22 0
BBX 18 27 0 0
BITMAP
7003C0
F807C0
787FC0
7FE7C0
7BE3C0
FBE0C0
03E000
03E000
073C00
1E3C00
3C3C00
3C3E00
3C3E00
7C3C00
7C3C00
7C3C00
7C3C00
783C00
783C00
783C00
783C00
783C00
783C00
783C00
783C00
783C00
783C00
ENDCHAR
STARTCHAR sha-sat-kaib
ENCODING 4665
SWIDTH 1800 0
DWIDTH 29 0
BBX 25 28 0 0
BITMAP
0000E000
0001E000
F803E000
F81FE000
FFF9E000
F8F8E000
F0F80000
E0F80000
00F80000
01FC0000
079E0000
1F0F0000
1F1F0000
3E1F0000
3E1F0000
7E1F0700
7E1F1F00
7E1EFF00
7C3F1F00
7C3E1F80
7C3E0F80
7C3E0000
7C3E0000
7C3E0000
7C3E0000
7C3E0000
7C1E0000
7C1E0000
ENDCHAR
STARTCHAR sha-sat-salis
ENCODING 4666
SWIDTH 1800 0
DWIDTH 29 0
BBX 25 31 0 -2
BITMAP
0000F000
0001E000
7803E000
7C03E000
7FFFE000
7EF8F000
7CF80000
F8F80000
00F80000
00FC0000
03DE0000
079F0000
0F1F0000
1F1F0000
1F1F0000
1F1F0000
1E1F0000
3E1F0000
3E1F0000
3E1F0000
3E1F0000
3E1F0000
3E1F0000
3E1F0000
3E1F0000
3E1F0700
3F1F0F00
1F1FFF00
00001F00
00000F80
00000780
ENDCHAR
STARTCHAR sha-sat-rabi
ENCODING 4667
SWIDTH 1400 0
DWIDTH 23 0
BBX 19 28 0 0
BITMAP
0000E0
2003E0
F807E0
F81FE0
FFF3E0
F9F1E0
F9F000
E1F000
01F800
07FC00
0F3E00
1F3E00
1E3E00
3E3E00
3E3E00
7E3E00
7C3E00
7C3E00
7C3E00
7C3E00
7C3E00
3C3E00
003E00
003E00
003E00
003E00
003E00
003C00
ENDCHAR
STARTCHAR sha-sat-hamis
ENCODING 4668
SWIDTH 1533 0
DWIDTH 25 0
BBX 21 27 0 1
BITMAP
0001E0
F003C0
F807C0
FFFFC0
FBE3C0
FBE1C0
03E000
03E000
07F800
1E7C00
3C7C00
7C7C00
787C00
F87C00
F87C00
F87C00
F87C00
F87C00
F8FC00
F8FFF0
F8FCF8
F8F8F8
F8F8F8
F8F8F8
F8F9F0
F0FFC0
F0FC00
ENDCHAR
STARTCHAR sha-sat-sadis
ENCODING 4669
SWIDTH 1466 0
DWIDTH 24 0
BBX 20 26 0 0
BITMAP
0001F0
F003F0
FC07E0
FFFFF0
FDF3F0
E0F800
00FC00
003E00
007F80
00E7C0
01C7C0
03C7C0
03C7C0
07C7C0
0787C0
0F87C0
0F8F80
1F8F80
1F8F80
1F8F80
1F8F80
1F0F80
1F0F80
1F0F80
1F0F80
0F0F80
ENDCHAR
STARTCHAR sha-sat-sabi
ENCODING 4670
SWIDTH 1466 0
DWIDTH 24 0
BBX 20 26 0 0
BITMAP
000070
7801E0
7C03E0
7FFFE0
7CF8E0
F8F800
00F800
00F800
03BC00
070E00
0F0F00
1F1F00
1E1F00
3E1F00
3E1F00
3E3E00
3E3E00
3E3E00
3E3E00
7C3F00
7C0E00
7C0000
7C0000
7C0000
3E0000
3E0000
ENDCHAR
STARTCHAR sha-sat-zemede-rabi
ENCODING 4671
SWIDTH 1466 0
DWIDTH 24 0
BBX 20 27 0 0
BITMAP
C00000
F000F0
F801F0
F801F0
FFFFF0
03FFE0
01E000
03E000
1FF000
3E3E00
3E3E00
3E3E00
7E3E00
7C3E00
7C7E00
7C7E00
7C7C00
7C7C00
7C7C00
7C7C00
787800
00F800
00F800
7FFFF0
7FFFF0
7C01F0
7C01F0
ENDCHAR
STARTCHAR qaf-geez
ENCODING 4672
SWIDTH 1533 0
DWIDTH 25 0
BBX 21 25 0 0
BITMAP
007800
00FC00
00FC00
00F800
00F800
00F800
00FFE0
01F9F8
1EF8F8
3CF8F8
78F8F8
F8F8F8
F8F9F0
F8FFC0
FDFF80
7FF800
01F000
01F000
01F000
01F000
01F000
01F000
01F000
01F000
01E000
ENDCHAR
STARTCHAR qaf-kaib
ENCODING 4673
SWIDTH 1600 0
DWIDTH 26 0
BBX 22 26 0 0
BITMAP
007C00
007C00
007C00
007C00
007C00
007C00
007C70
007FF8
0FFC7C
7C7C7C
F87C7C
F87878
F8F8F0
F8F9E0
F8FF80
FFFC00
7FF800
00F878
00F9F8
01FFF8
01F1F8
01F0F8
01F000
01F000
01F000
00F000
ENDCHAR
STARTCHAR qaf-salis
ENCODING 4674
SWIDTH 1600 0
DWIDTH 26 0
BBX 22 26 0 0
BITMAP
007E00
007E00
007E00
007E00
007E00
007E00
007FF8
007FF8
0FFE7C
1FFC7C
3E7C7C
7C7C7C
F87C7C
F8FC78
FCFFE0
FFFF00
7FF800
00F800
00F800
00F800
00F83C
00F878
00F8F8
00FFF8
0080FC
00007C
ENDCHAR
STARTCHAR qaf-rabi
ENCODING 4675
SWIDTH 1866 0
DWIDTH 30 0
BBX 26 27 0 0
BITMAP
000F8000
000F8000
000F8000
00078000
0007C000
0007FF80
007FCFC0
03FFCFC0
07E7C7C0
0FC7C7C0
0F87C780
0F87CF00
0F87DF00
0FFFF800
07F7C000
0007C000
00078000
001F0000
003E0000
01F00000
0F800000
3F000000
78000000
F8000000
F8000000
F8000000
F0000000
ENDCHAR
STARTCHAR qaf-hamis
ENCODING 4676
SWIDTH 1600 0
DWIDTH 26 0
BBX 22 25 0 1
BITMAP
003C00
007C00
007C00
007C00
007C00
007C00
007FF8
0FFCFC
3E7C7C
7C7C7C
787C7C
F87C7C
F87CF8
F87DF0
F8FFE0
FFF800
38F800
00F800
01FFF0
01F1F0
01F1F0
01F1F0
01F1E0
01FFE0
00F000
ENDCHAR
STARTCHAR qaf-sadis
ENCODING 4677
SWIDTH 1533 0
DWIDTH 25 0
BBX 21 28 0 0
BITMAP
1F0000
1F8000
1F8000
1F9800
1EFC00
007C00
007C00
007C00
007C00
007FF0
03FDF8
3EF8F8
7CF8F8
78F8F8
F8F8F8
F8F8F0
F8F9E0
F8FFC0
7FF800
00F000
01F000
01F000
01F000
01F000
01F000
01F000
01F000
00E000
ENDCHAR
STARTCHAR qaf-sabi
ENCODING 4678
SWIDTH 1466 0
DWIDTH 24 0
BBX 20 23 0 0
BITMAP
001C00
003F00
00E780
01E780
01E780
01E780
01FE00
00F800
00FFC0
07FBE0
3EF9F0
7CF8F0
F8F8F0
F8F1E0
F8F3C0
F9FF80
7FF000
01E000
01E000
01E000
01E000
01E000
01E000
ENDCHAR
STARTCHAR qaf-zemede-geez
ENCODING 4680
SWIDTH 1600 0
DWIDTH 26 0
BBX 22 22 0 0
BITMAP
00F000
01F800
00F800
00F800
00FFC0
0FFFC0
39F3E0
F9F1E0
F9F1E0
F1F3E0
F1F3C0
F3F780
F3FF00
7FE000
33E0F0
03E7F8
03FF3C
03EF3C
07EF3C
07EFF8
07EFE0
03E000
ENDCHAR
STARTCHAR qaf-zemede-salis
ENCODING 4682
SWIDTH 2200 0
DWIDTH 35 0
BBX 31 22 0 0
BITMAP
00300000
00F80000
00F80000
00F80000
00FF87C0
0FFFC7C0
3CFBE7C0
79F9EF80
F9F1FF00
F9F1EF00
F9F3EFFE
F9F3CFFE
F9F7803E
7FFE003E
1BF0001E
03E00000
03E00000
03E00000
03E00000
03E00000
03F00000
03E00000
ENDCHAR
STARTCHAR qaf-zemede-rabi
ENCODING 4683
SWIDTH 1400 0
DWIDTH 23 0
BBX 19 26 0 -3
BITMAP
01F000
01F800
00F800
01F800
0FFFC0
7DF3E0
F9F3E0
F9F3E0
F9F3E0
F9F3E0
FBE3E0
FBE7C0
FBE7C0
7FFF00
03E000
03E000
03E000
07C000
7FFC00
F83E00
F81E00
F83E00
F03E00
003E00
003E00
003E00
ENDCHAR
STARTCHAR qaf-zemede-hamis
ENCODING 4684
SWIDTH 1600 0
DWIDTH 26 0
BBX 22 24 0 -4
BITMAP
000F00
001F00
000F00
000F00
03FFF8
0F9F7C
1F1F7C
1F1F7C
1E1E7C
1E1E78
1E1EF0
1F3FE0
0FFC00
007C00
007FE0
0078F0
00F8F0
00F8F0
00FDF0
07E3C0
7C0000
7C0000
780000
F00000
ENDCHAR
STARTCHAR qaf-zemede-kaib
ENCODING 4685
SWIDTH 2200 0
DWIDTH 35 0
BBX 31 22 0 0
BITMAP
00F80000
00FC0000
00FC0000
00FC0000
00FFC7C0
0FFFE7C0
3CF9E7C0
78F9FFC0
F9F9FFFE
F9F1E07E
F9F3E07E
F9F3E03E
F9F3C03E
7FFE0000
3FF00000
03F00000
03E00000
03E00000
03E00000
03E00000
03E00000
03E00000
ENDCHAR
STARTCHAR qha-qaf-geez
ENCODING 4688
SWIDTH 1466 0
DWIDTH 24 0
BBX 20 26 0 0
BITMAP
1C01C0
3E03E0
3E03E0
3FFFE0
3E7BE0
00F000
007800
007800
007F80
007FC0
1FF3F0
38F1F0
78F1E0
F0F1E0
F0F3C0
F0F780
FFFC00
01E000
01E000
01E000
03E000
03E000
03E000
03E000
03E000
03E000
ENDCHAR
STARTCHAR qha-qaf-kaib
ENCODING 4689
SWIDTH 1400 0
DWIDTH 23 0
BBX 19 25 0 0
BITMAP
3C01E0
3E03E0
1FFFE0
3E73E0
3C79E0
007800
007800
007800
00FFE0
0FFBE0
3DF3E0
78F1E0
F8F1E0
F8F3E0
F9E3C0
F8FF00
7FF060
01F3E0
01FFE0
01F7E0
01E3E0
01E3E0
03E000
03E000
01E000
ENDCHAR
STARTCHAR qha-qaf-salis
ENCODING 4690
SWIDTH 1466 0
DWIDTH 24 0
BBX 20 25 0 0
BITMAP
1E00E0
1E01E0
1FFFE0
1EF9E0
1EF8E0
00F800
00F800
00FFE0
02FBF0
07F1F0
1DF1F0
78F1F0
F8F9C0
79FF80
7DFF00
7FF800
3FF000
01F000
01F000
01F000
01F0E0
01F3E0
01FFE0
01FFE0
0003F0
ENDCHAR
STARTCHAR qha-qaf-rabi
ENCODING 4691
SWIDTH 1666 0
DWIDTH 27 0
BBX 23 26 0 0
BITMAP
07801C
07C03C
03FFFC
07FF7C
079F1C
001F00
001FFC
001FFE
00FF1E
03FF1E
079F1E
0F9F1E
0F9F1C
0F9FF8
07FF00
039F00
001F00
003E00
007800
007000
078000
7C0000
7C0000
F80000
F80000
F00000
ENDCHAR
STARTCHAR qha-qaf-hamis
ENCODING 4692
SWIDTH 1400 0
DWIDTH 23 0
BBX 19 25 0 0
BITMAP
380380
3C0780
3FFF80
3CF780
387B80
00F800
00FB80
00FF80
0FF3E0
3DF3E0
79F3E0
F9F3C0
F9F380
F9F780
F9FB00
7FF000
01F000
01F000
01FF80
03E780
03E780
03E780
03E780
03FF00
01F000
ENDCHAR
STARTCHAR qha-qaf-sadis
ENCODING 4693
SWIDTH 1600 0
DWIDTH 26 0
BBX 22 29 0 0
BITMAP
700700
F00F00
F81F00
7FFF00
F3EF00
03E000
03FC00
01FE00
003E00
003E00
003E00
001F00
001FF8
01FFFC
07BE7C
0F3E7C
1F3E7C
1F3E78
1F3FF0
1FFF00
0FFC00
007C00
007C00
007C00
007C00
007C00
007C00
007C00
007800
ENDCHAR
STARTCHAR qha-qaf-sabi
ENCODING 4694
SWIDTH 1533 0
DWIDTH 25 0
BBX 21 26 0 0
BITMAP
0F0078
0F0078
0FFFF8
0F9CF8
0F3F78
00E780
01E780
01E780
01E780
01FE00
00F800
00FFC0
07FBE0
3EF9F0
7CF8F0
F8F8F0
F8F1E0
F8F3C0
F9FF80
7FF000
01E000
01E000
01E000
01E000
01E000
01E000
ENDCHAR
STARTCHAR qha-qaf-zemede-geez
ENCODING 4696
SWIDTH 1600 0
DWIDTH 26 0
BBX 22 26 0 0
BITMAP
3C01E0
3E03E0
1FFFE0
3E73E0
3CF9E0
01F800
00F800
00F800
00FFC0
0FFFC0
39F3E0
F9F1E0
F9F1E0
F1F3E0
F1F3C0
F3F780
F3FF00
7FE000
33E0F0
03E7F8
03FF3C
03EF3C
07EF3C
07EFF8
07EFE0
03E000
ENDCHAR
STARTCHAR qha-qaf-zemede-salis
ENCODING 4698
SWIDTH 2200 0
DWIDTH 35 0
BBX 31 26 0 0
BITMAP
3C01E000
3E03E000
1FFFE000
3E73E000
3C79E000
00F80000
00F80000
00F80000
00FF87C0
0FFFC7C0
3CFBE7C0
79F9EF80
F9F1FF00
F9F1EF00
F9F3EFFE
F9F3CFFE
F9F7803E
7FFE003E
1BF0001E
03E00000
03E00000
03E00000
03E00000
03E00000
03F00000
03E00000
ENDCHAR
STARTCHAR qha-qaf-zemede-rabi
ENCODING 4699
SWIDTH 1400 0
DWIDTH 23 0
BBX 19 30 0 -3
BITMAP
7803C0
7C07C0
3FFFC0
7CE7C0
79F3C0
01F800
00F800
01F800
0FFFC0
7DF3E0
F9F3E0
F9F3E0
F9F3E0
F9F3E0
FBE3E0
FBE7C0
FBE7C0
7FFF00
03E000
03E000
03E000
07C000
7FFC00
F83E00
F81E00
F83E00
F03E00
003E00
003E00
003E00
ENDCHAR
STARTCHAR qha-qaf-zemede-hamis
ENCODING 4700
SWIDTH 1600 0
DWIDTH 26 0
BBX 22 28 0 -4
BITMAP
07803C
07C07C
03FFFC
07CE7C
078F3C
001F00
000F00
000F00
03FFF8
0F9F7C
1F1F7C
1F1F7C
1E1E7C
1E1E78
1E1EF0
1F3FE0
0FFC00
007C00
007FE0
0078F0
00F8F0
00F8F0
00FDF0
07E3C0
7C0000
7C0000
780000
F00000
ENDCHAR
STARTCHAR qha-qaf-zemede-kaib
ENCODING 4701
SWIDTH 2200 0
DWIDTH 35 0
BBX 31 26 0 0
BITMAP
1E00F000
1F01F000
0FFFF000
1F39F000
1EFCF000
00FC0000
00FC0000
00FC0000
00FFC7C0
0FFFE7C0
3CF9E7C0
78F9FFC0
F9F9FFFE
F9F1E07E
F9F3E07E
F9F3E03E
F9F3C03E
7FFE0000
3FF00000
03F00000
03E00000
03E00000
03E00000
03E00000
03E00000
03E00000
ENDCHAR
STARTCHAR bet-geez
ENCODING 4704
SWIDTH 1133 0
DWIDTH 19 0
BBX 15 23 0 0
BITMAP
00F8
077C
1E7E
3C3E
3C3E
7C3E
7C3E
F83E
F83E
F83E
F83E
F83E
F83E
F83E
F83E
F83E
F83E
F83E
F83E
F83E
F83E
F83E
F83E
ENDCHAR
STARTCHAR bet-kaib
ENCODING 4705
SWIDTH 1800 0
DWIDTH 29 0
BBX 25 24 0 0
BITMAP
00F80000
07FE0000
1E3E0000
3C1F0000
3C1F0000
7C1F0000
7C1F0000
7C1F8780
781F8F80
781FFF80
781F9F80
F81F0F80
F81F0F80
F81F0000
F81F0000
F81E0000
F81E0000
F83E0000
F83E0000
F83E0000
F83E0000
F83E0000
F83E0000
F81E0000
ENDCHAR
STARTCHAR bet-salis
ENCODING 4706
SWIDTH 1800 0
DWIDTH 29 0
BBX 25 25 0 -1
BITMAP
00F80000
07FC0000
1E7E0000
3E3F0000
3C1F0000
7C1F0000
7C1F0000
7C1F0000
7C1F0000
FC3E0000
F83E0000
F83E0000
F83E0000
F83E0000
F83E0000
F83E0000
F83E0000
F83E0000
F83E0000
F83E0F00
F83F1F00
F83F9F00
781FFF00
00001F80
00000F80
ENDCHAR
STARTCHAR bet-rabi
ENCODING 4707
SWIDTH 1200 0
DWIDTH 20 0
BBX 16 23 0 1
BITMAP
07FC
1E7E
3E3E
3C1F
7C1F
7C1F
7C1F
FC1F
F81F
F81F
F81F
F81F
F83E
F83E
F83E
F83E
783E
003E
003E
003E
003E
003E
001E
ENDCHAR
STARTCHAR bet-hamis
ENCODING 4708
SWIDTH 1666 0
DWIDTH 27 0
BBX 23 23 0 1
BITMAP
01FC00
0F3E00
3E1F00
3C1F00
7C1F00
7C1F00
7C1F00
7C1F00
7C1F00
7C1F00
7C1F00
FC1F00
F81F00
F81F00
F81F00
F81F38
F81FFE
F81F3E
FC1F3E
FC1F3E
FC1F3E
7C1F7C
7C1FF8
ENDCHAR
STARTCHAR bet-sadis
ENCODING 4709
SWIDTH 1600 0
DWIDTH 26 0
BBX 22 23 0 0
BITMAP
0003E0
000FF0
003CF8
00787C
00787C
00F87C
00F87C
07F07C
3DF07C
F9F07C
F9F07C
F9F07C
F1F07C
C1F07C
01F07C
01F07C
01F07C
01F07C
01F07C
01F07C
01F07C
01F07C
01F07C
ENDCHAR
STARTCHAR bet-sabi
ENCODING 4710
SWIDTH 1133 0
DWIDTH 19 0
BBX 15 23 0 0
BITMAP
01F8
0FFC
1C7E
3C3E
783E
783E
783E
F83E
F83E
F83E
F83E
F83E
F83E
F83E
F83E
F83E
F83E
F81E
F800
F800
F800
F800
F800
ENDCHAR
STARTCHAR bet-zemede-rabi
ENCODING 4711
SWIDTH 1533 0
DWIDTH 25 0
BBX 21 24 0 0
BITMAP
01F800
0FFC00
1E3E00
3E1E00
7C1F00
7C1F00
7C1F00
FC1F00
FC1F00
F83F00
F83E00
F83E00
F83E00
F83E00
F83E00
F83C00
007C00
007C00
007C00
007C00
7FFFF8
7FFFF8
7E00F8
FC00F8
ENDCHAR
STARTCHAR ve-bet-geez
ENCODING 4712
SWIDTH 1333 0
DWIDTH 22 0
BBX 18 26 0 0
BITMAP
F007C0
F80FC0
7FFFC0
F80FC0
F807C0
F003C0
000000
03F000
0F3C00
1E3E00
3E3E00
3C3E00
7C3E00
7C3E00
7C3E00
7C3E00
787C00
787C00
787C00
787C00
787C00
787C00
787C00
787C00
787800
787800
ENDCHAR
STARTCHAR ve-bet-kaib
ENCODING 4713
SWIDTH 1666 0
DWIDTH 27 0
BBX 23 26 0 0
BITMAP
F001E0
FC07E0
FFFFE0
FC07E0
F803E0
F001E0
03F800
0F3E00
1E3E00
3E3E00
7C3E00
7C3E00
7C3E00
FC3E0E
FC3E3E
F83FFE
F83E7E
F83C3E
F83C3E
F83C00
F83C00
F83C00
F83C00
F83C00
F83C00
F83C00
ENDCHAR
STARTCHAR ve-bet-salis
ENCODING 4714
SWIDTH 1733 0
DWIDTH 28 0
BBX 24 29 0 -2
BITMAP
F001C0
F803E0
FC07E0
FFFFE0
F807E0
F001E0
000000
07F800
0E3C00
1E3C00
3C3E00
7C7E00
787E00
787E00
787E00
F87C00
F87C00
F87C00
F87C00
F87C00
F87C00
F87C00
F87C00
F87C0E
F87C1E
F87E3E
787FFE
00003E
00001F
ENDCHAR
STARTCHAR ve-bet-rabi
ENCODING 4715
SWIDTH 1400 0
DWIDTH 23 0
BBX 19 26 0 0
BITMAP
F001E0
F803E0
FFFFE0
F803E0
F803E0
F001E0
03FC00
07BE00
0F1F00
1F1F00
3E1F00
3E1F00
7E1F00
7C3E00
7C3E00
7C3E00
7C3E00
7C3E00
7C3E00
003E00
003E00
003E00
003E00
003E00
003E00
003E00
ENDCHAR
STARTCHAR ve-bet-hamis
ENCODING 4716
SWIDTH 1600 0
DWIDTH 26 0
BBX 22 27 0 0
BITMAP
7001E0
F803E0
FC03E0
7FFFE0
FC03E0
F801E0
000000
03F800
073C00
1E3E00
3E3E00
3C3E00
7C3E00
7C3E00
7C7E00
FC7C00
FC7C00
F87C00
F87FF8
F87C7C
F87C7C
F87C7C
F87C7C
F87C78
F87DF8
F87FC0
787C00
ENDCHAR
STARTCHAR ve-bet-sadis
ENCODING 4717
SWIDTH 1733 0
DWIDTH 28 0
BBX 24 26 0 0
BITMAP
03C00F
03E01F
03FFFF
03E01F
03E00F
03C00F
000000
0007E0
003C70
007870
00F878
00F878
01F070
01F0F0
01F0F0
07F0F0
F9E0F0
F9E0F0
F9E0F0
F9E0F0
F1E0F0
01E0F0
01E0F0
01E0F0
01E0F0
01E0F0
ENDCHAR
STARTCHAR ve-bet-sabi
ENCODING 4718
SWIDTH 1333 0
DWIDTH 22 0
BBX 18 24 0 0
BITMAP
7801C0
FC03C0
7FFFC0
7C03C0
FC03C0
7801C0
01F800
079C00
0F1E00
1F1E00
1F1E00
3E1E00
3E1E00
3E1E00
3E3E00
3E3E00
3C3E00
7C3E00
7C1E00
7C0000
7C0000
7C0000
7C0000
7C0000
ENDCHAR
STARTCHAR ve-bet-zemede-rabi
ENCODING 4719
SWIDTH 1533 0
DWIDTH 25 0
BBX 21 27 0 -1
BITMAP
F003C0
F807C0
7FFF80
F807C0
F003C0
000000
3FFE00
3FFE00
7C1E00
7C1E00
7C1E00
7C3E00
7C3E00
7C3E00
7C3E00
783E00
F83E00
F87C00
F87C00
787C00
007C00
00FC00
7FFFF0
7C01F0
FC01F0
F800F0
E00078
ENDCHAR
STARTCHAR taw-geez
ENCODING 4720
SWIDTH 1600 0
DWIDTH 26 0
BBX 22 23 0 0
BITMAP
003C00
007C00
007C00
007C00
007C00
007C3C
007FFC
03FC7C
1C7C7C
7C7C7C
7C7C3C
F87C00
F07C00
E07C00
007C00
00FC00
00F800
00F800
00F800
00F800
00F800
00F800
00F800
ENDCHAR
STARTCHAR taw-kaib
ENCODING 4721
SWIDTH 1733 0
DWIDTH 28 0
BBX 24 24 0 0
BITMAP
001F00
001F00
001F00
001F00
001F00
001F00
001F3F
003FFF
07FF3E
7E1F3F
7E3E1F
7C3E0F
7C3E00
F07C00
E07C0E
007C3E
007C7E
007FFC
00FC7E
00F83E
00F800
00F800
00F800
00F800
ENDCHAR
STARTCHAR taw-salis
ENCODING 4722
SWIDTH 1800 0
DWIDTH 29 0
BBX 25 25 0 -1
BITMAP
001F0000
003F0000
001F0000
001F0000
001F0000
001F0000
003F0000
003FFF00
7FFE3F00
7E3E1F00
7E3E1F00
7C3E0F80
FC3E0700
F03E0000
003E0000
007C0000
007C0000
007C0000
007C0000
007C1E00
007C7E00
0078FC00
007FFE00
00007E00
00003E00
ENDCHAR
STARTCHAR taw-rabi
ENCODING 4723
SWIDTH 1933 0
DWIDTH 31 0
BBX 27 27 0 0
BITMAP
0007C000
0007C000
0007C000
0007C000
0007C000
0007C000
0007C000
0007FFE0
07FFFBE0
0FC7C3E0
0FC7C3E0
0FC7C3E0
0F87C1E0
1F87C000
1F0FC000
000F8000
000F8000
001F0000
001F0000
007C0000
03F00000
7E000000
FE000000
FC000000
FC000000
F8000000
E0000000
ENDCHAR
STARTCHAR taw-hamis
ENCODING 4724
SWIDTH 1733 0
DWIDTH 28 0
BBX 24 24 0 0
BITMAP
001E00
003F00
001F00
001F00
001F00
001F00
001F00
003FFF
3FFE1F
7C3E1F
7C3E1F
7C7E0F
787C00
F87C00
007C00
007800
00FFF8
00FCF8
00F8F8
00F8F8
00F8F8
00F8F0
00FFF0
00F800
ENDCHAR
STARTCHAR taw-sadis
ENCODING 4725
SWIDTH 1733 0
DWIDTH 28 0
BBX 24 26 0 0
BITMAP
0FC000
07C000
07C000
07FC00
0E7E00
003E00
003E00
003E00
003E00
003C00
07FFFE
7E7C3E
7C7C3E
7C7C3E
787C1F
F07C00
607C00
00F800
00F800
00F800
00F800
00F800
00F800
00F800
00F800
00F800
ENDCHAR
STARTCHAR taw-sabi
ENCODING 4726
SWIDTH 1600 0
DWIDTH 26 0
BBX 22 24 0 0
BITMAP
003F00
007780
01F780
01F780
01F780
01F780
01F700
01FE00
00F800
01F800
7E7FF8
7C78F8
7CF8F8
F8F8FC
F0F87C
00F800
00F800
00F800
00F000
00F000
01F000
01F000
01F000
01F000
ENDCHAR
STARTCHAR taw-bet-zemede-rabi
ENCODING 4727
SWIDTH 1866 0
DWIDTH 30 0
BBX 26 24 0 0
BITMAP
001F8000
000F8000
000F8000
000F8000
000F8000
001F8000
01FFFF80
1FFF9FC0
3F1F1F80
3F1F0FC0
3C3F03C0
3C3F01C0
003E0000
003E0000
003E0000
003E0000
007C0000
007C0000
007C0000
00FFFC00
7FFFFC00
7E00FC00
7C007C00
F8007C00
ENDCHAR
STARTCHAR cha-taw-geez
ENCODING 4728
SWIDTH 1600 0
DWIDTH 26 0
BBX 22 28 0 0
BITMAP
000038
0000F8
0001F8
FC0FFC
FFFCFC
7FF870
7CF800
78F800
F0F800
00F800
00FFFC
07F87C
F8F87C
F8F87C
F8F818
F8F800
E0F800
C0F800
00F800
00F000
00F000
00F000
00F000
00F000
00F000
00F000
00F000
00F000
ENDCHAR
STARTCHAR cha-taw-kaib
ENCODING 4729
SWIDTH 1666 0
DWIDTH 27 0
BBX 23 29 0 0
BITMAP
00001E
00007E
00007C
3E00FC
3F1FFE
1FFE7E
1F3E00
3F3E00
3C7E00
007E00
007E00
007CFE
00FF7E
7FFC3E
7E7C3E
7E7C3E
7E7C1E
7C7C00
F8FC00
00F87C
00F8F8
00FFF8
00F8FC
00F87C
00F800
00F800
00F800
00F800
00F800
ENDCHAR
STARTCHAR cha-taw-salis
ENCODING 4730
SWIDTH 1666 0
DWIDTH 27 0
BBX 23 29 0 0
BITMAP
00001E
00007E
0000FC
7C00FC
7E0FFE
7FFE7E
3F3E00
7E3E00
7C3E00
003E00
007E1E
007FFE
0FFE7E
7FFC3E
FC7C3E
FC7C3E
F8FC00
F0F800
E0F800
00F800
00F800
00F800
00F800
00F83C
00F87C
00FDFC
00FFFC
0000FE
00007C
ENDCHAR
STARTCHAR cha-taw-rabi
ENCODING 4731
SWIDTH 1800 0
DWIDTH 29 0
BBX 25 29 0 1
BITMAP
00000F80
00001F80
1F803F80
1FC7FF80
1FFF9F80
0FCF8700
0F8F8000
1F0F8000
001F0000
001F0000
001FFF00
03FF9F00
3F1F1F00
3F1F1F80
3F1F0F80
3E1F0000
3E3F0000
783E0000
003E0000
003E0000
007C0000
007C0000
01F80000
03800000
1E000000
7C000000
7C000000
7C000000
F8000000
ENDCHAR
STARTCHAR cha-taw-hamis
ENCODING 4732
SWIDTH 1600 0
DWIDTH 26 0
BBX 22 27 0 0
BITMAP
000078
0001F8
1C01F8
7E07F8
7E7DFC
3FFCFC
3E7C00
3E7C00
3C7C00
00FC00
00F838
00FFF8
7FF9F8
7CF8F8
7CF8FC
7CF87C
F8F800
00F000
00F000
01FFE0
01F3E0
01F3E0
01F3E0
01F3E0
01F3C0
01FF80
01FC00
ENDCHAR
STARTCHAR cha-taw-sadis
ENCODING 4733
SWIDTH 1666 0
DWIDTH 27 0
BBX 23 29 0 0
BITMAP
F000F0
F801F0
F803F0
FFFFF0
C1F1F0
01E000
03E000
03FF00
001F00
001F00
001F00
003F00
003E00
003FFE
3FFE3E
3E3E3E
3E3E3E
7C3E1E
783E0E
007E00
007C00
007C00
007C00
00FC00
00F800
00F800
00F800
00F800
00F800
ENDCHAR
STARTCHAR cha-taw-sabi
ENCODING 4734
SWIDTH 1666 0
DWIDTH 27 0
BBX 23 29 0 0
BITMAP
00003E
00003E
1F003E
1F003C
1F01F0
1FFFC0
1FF7C0
01E3C0
03C3C0
03C3C0
03E780
01FF00
01FE00
00FC00
7FFFF0
7CFDF0
78F9F0
78F9F0
F0F8F8
00F800
01F000
01F000
01F000
01F000
01F000
01F000
01F000
01F000
01F000
ENDCHAR
STARTCHAR cha-taw-bet-zemede-rabi
ENCODING 4735
SWIDTH 1733 0
DWIDTH 28 0
BBX 24 22 0 -1
BITMAP
07FFFF
07CF9F
078F8F
0F1F07
001F00
001FFE
0FFF3E
0F9F3E
0FBF3E
1F3F1E
1C3E06
003E00
003E00
003C00
007C00
007C00
007FF8
607FF8
7FFFF8
7C00F8
7C0078
880060
ENDCHAR
STARTCHAR harm-geez
ENCODING 4736
SWIDTH 1466 0
DWIDTH 24 0
BBX 20 24 0 0
BITMAP
001F00
001F80
000F80
000F80
00FF00
7F1F00
7E1F30
7E01F0
FC01F0
F801F0
0001F0
0001F0
0003F0
0003E0
0003E0
0003E0
0003E0
0007E0
0007C0
0007C0
0007C0
0007C0
0007C0
0007C0
ENDCHAR
STARTCHAR harm-kaib
ENCODING 4737
SWIDTH 1866 0
DWIDTH 30 0
BBX 26 22 0 0
BITMAP
003F0000
003F0000
001F0000
001F0000
03FF0000
7E3F0000
7E3F0000
7E3FF800
7E01F800
F801F800
0001F800
0001F000
0003F780
0003FF80
0003E7C0
0003E7C0
0003E3C0
0003E000
0007C000
0007C000
0007C000
0007E000
ENDCHAR
STARTCHAR harm-salis
ENCODING 4738
SWIDTH 1933 0
DWIDTH 31 0
BBX 27 26 0 -3
BITMAP
000F0000
003F0000
001F0000
001F0000
001F0000
0FFF0000
7F3F0000
7E3FF800
7E01F800
7C01F800
F001F800
0001F000
0003F000
0003F000
0003F000
0003F000
0003F000
0003E000
0007E000
0007E1C0
0007E3C0
0007FFC0
0003FFC0
000007C0
000003E0
000001C0
ENDCHAR
STARTCHAR harm-rabi
ENCODING 4739
SWIDTH 1533 0
DWIDTH 25 0
BBX 21 26 0 0
BITMAP
001E00
001F00
001F00
001F00
001F00
00FF00
1FFE00
1F1FF8
1F11F8
1E01F8
3C01F8
7801F8
0001F8
0001F8
0001F8
0003F0
0003E0
0007C0
001E00
07E000
7C0000
7C0000
7C0000
7C0000
7C0000
F80000
ENDCHAR
STARTCHAR harm-hamis
ENCODING 4740
SWIDTH 1800 0
DWIDTH 29 0
BBX 25 23 0 0
BITMAP
001F0000
001F8000
000F8000
001F0000
3FFF0000
3F1F0000
7E1F0000
7E01F000
F801F000
0001F000
0003F000
0003E000
0003E000
0007E000
0007E000
0007C000
0007FF00
0007CF80
000FCF80
000F8F80
000F8F80
0007FE00
0007F800
ENDCHAR
STARTCHAR harm-sadis
ENCODING 4741
SWIDTH 1333 0
DWIDTH 22 0
BBX 18 23 0 0
BITMAP
00FC00
007C00
00FC00
0FFC00
1EFC00
3CFC00
78FFC0
F807C0
F807C0
F807C0
0007C0
000FC0
000F80
000F80
000F80
000F80
000F80
001F00
001F00
001F00
001F00
001F00
001F00
ENDCHAR
STARTCHAR harm-sabi
ENCODING 4742
SWIDTH 2266 0
DWIDTH 36 0
BBX 32 23 0 -2
BITMAP
000003FC
00007F9E
0003EF1E
00078F1F
000F0F1F
000F0F1E
3FFF0FBC
3F1F0FF8
7E1E0000
7E3E0000
F83E0000
003F0000
001FFE00
00003F00
00001F00
00001F00
00003F00
00003F00
00003E00
00003E00
00003E00
00007E00
00003E00
ENDCHAR
STARTCHAR harm-zemede-geez
ENCODING 4744
SWIDTH 2200 0
DWIDTH 35 0
BBX 31 20 0 0
BITMAP
00FC0000
00FC0000
007C0000
007C0000
7FFC0000
7CFFC000
7C23C3F8
F803FF3C
F007FF3E
E007CE3E
0007CE3E
000F9F3C
000F9FFC
000F0FF0
000F0000
001F0000
001F0000
001F0000
001F0000
001E0000
ENDCHAR
STARTCHAR harm-zemede-salis
ENCODING 4746
SWIDTH 2266 0
DWIDTH 36 0
BBX 32 20 0 0
BITMAP
00FC0000
007C0000
007C0000
00FC0000
7FFC0000
7C7FEF80
7C07EF80
7C03EF80
F803CF80
E007FF00
0007FF00
0007DFFE
000FCE7E
000FC03E
000F803E
001F001F
001F0000
001F0000
001F0000
001F0000
ENDCHAR
STARTCHAR harm-zemede-rabi
ENCODING 4747
SWIDTH 1800 0
DWIDTH 29 0
BBX 25 27 0 -4
BITMAP
001F0000
001F8000
000F8000
001F0000
3FFF0000
3F1F0000
7E1F0000
7E01F000
F801F000
0001F000
0003F000
0003E000
0003E000
0007E000
0007E000
0007C000
0007FF00
0007CF80
000FCF80
000F8F80
000F8F80
001FFE00
007FF800
07E00000
07E00000
07C00000
07800000
ENDCHAR
STARTCHAR harm-zemede-hamis
ENCODING 4748
SWIDTH 1400 0
DWIDTH 23 0
BBX 19 25 0 -3
BITMAP
01F800
00F800
00F800
00F800
7FF800
7DF800
7CFF80
781F80
F81F80
001F80
001F00
003F00
003F00
003F00
003E00
01FE00
3F8600
3F8300
7C03E0
FC03E0
FC03E0
F803E0
F003E0
0003E0
0003E0
ENDCHAR
STARTCHAR harm-zemede-kaib
ENCODING 4749
SWIDTH 2000 0
DWIDTH 32 0
BBX 28 20 0 0
BITMAP
03F00000
03F00000
01F00000
03F00000
7FF00000
7BFF0000
F9DF1E00
F81F1E00
F01F1E00
C01F3E00
001FFFE0
001E03E0
001E03E0
001E03E0
003E01F0
003E0000
003E0000
007E0000
007E0000
003E0000
ENDCHAR
STARTCHAR nehas-geez
ENCODING 4752
SWIDTH 1000 0
DWIDTH 17 0
BBX 13 23 0 0
BITMAP
3C00
7C00
7C00
7C00
7C00
7C00
FC00
FC00
FFF8
00F8
00F8
01F8
03F8
03F0
07F0
07E0
07E0
07C0
0FC0
0FC0
0F80
0F80
0F80
ENDCHAR
STARTCHAR nehas-kaib
ENCODING 4753
SWIDTH 1333 0
DWIDTH 22 0
BBX 18 24 0 0
BITMAP
780000
F80000
F80000
F80000
F80000
F80000
F80000
FFF000
FFF000
03F000
03F000
03F3C0
07FFC0
07E7C0
07E7C0
07E7C0
0FC000
0FC000
0FC000
1FC000
1F8000
1F8000
1F8000
1F0000
ENDCHAR
STARTCHAR nehas-salis
ENCODING 4754
SWIDTH 1266 0
DWIDTH 21 0
BBX 17 25 0 -1
BITMAP
FC0000
7C0000
7C0000
7C0000
7C0000
FC3800
FFF800
FFF800
01F800
03F800
03F000
07F000
07F000
07E000
0FC000
0FC000
1FC000
1F8000
1F8300
3F8F00
3F1F00
3FFF00
3E3F80
003F80
001F80
ENDCHAR
STARTCHAR nehas-rabi
ENCODING 4755
SWIDTH 1400 0
DWIDTH 23 0
BBX 19 24 0 0
BITMAP
03FFE0
1F8FE0
3F07E0
7E07E0
7E07E0
7C03E0
FC0000
FC0000
FC0000
FC0000
FC0000
FE7800
FFFC00
30FC00
00FC00
00FC00
00FC00
01F800
01F800
01F800
03F800
03F800
03F800
01F000
ENDCHAR
STARTCHAR nehas-hamis
ENCODING 4756
SWIDTH 1066 0
DWIDTH 18 0
BBX 14 23 0 0
BITMAP
F800
F800
F800
F800
F800
F800
FFC0
FFC0
07C0
0FC0
0F80
1F80
1F80
3F00
3F10
7FFC
7E7C
7C7C
FC7C
F878
F8F8
FFE0
7C00
ENDCHAR
STARTCHAR nehas-sadis
ENCODING 4757
SWIDTH 1333 0
DWIDTH 22 0
BBX 18 23 0 0
BITMAP
07FC00
7E3F00
7E3F00
7C7E00
7C7E00
F0FC00
00FC00
00FFC0
000FC0
000FC0
000F80
001F80
003F00
003F00
003F00
007E00
007E00
00FC00
00FC00
01FC00
01F800
01F800
01F800
ENDCHAR
STARTCHAR nehas-sabi
ENCODING 4758
SWIDTH 1533 0
DWIDTH 25 0
BBX 21 24 0 0
BITMAP
000FE0
01FEF0
0FBCF8
1F3CF8
3E3CF8
7C3CF0
7C3FE0
FC3F80
F80000
F80000
F80000
FC0000
7FF800
00FC00
007C00
007C00
007C00
00FC00
00F800
00F800
00F800
00F800
00F800
00F800
ENDCHAR
STARTCHAR neHes-zemede-rabi
ENCODING 4759
SWIDTH 1400 0
DWIDTH 23 0
BBX 19 24 0 0
BITMAP
00FFE0
03C7E0
0787E0
0F07E0
1F03E0
1F00E0
3E0000
3E0000
3E0000
3E0000
3F0000
1FFC00
00FC00
00FC00
00F800
00F800
00F800
00F800
01F000
7FFFC0
7C0FC0
7C07C0
F003C0
E000C0
ENDCHAR
STARTCHAR nye-nehas-geez
ENCODING 4760
SWIDTH 1666 0
DWIDTH 27 0
BBX 23 26 0 0
BITMAP
00001C
7C007C
7E007C
7FFFFC
7E787E
7CF83E
F8F800
00F800
00F800
00F000
00FFC0
00FFC0
000FC0
000FC0
000FC0
001F80
001F80
003F00
003F00
003E00
007E00
007C00
00FC00
00F800
00F800
00F800
ENDCHAR
STARTCHAR nye-nehas-kaib
ENCODING 4761
SWIDTH 1933 0
DWIDTH 31 0
BBX 27 27 0 0
BITMAP
00001E00
00007E00
F800FE00
FC0FFE00
FFFCFF00
7C7C7E00
FCFC0000
F0F80000
00F80000
00F80000
00FBE000
00FFE000
0007E000
0007FFC0
0007FFC0
000FC7C0
000F83E0
000F81E0
001F8000
001F0000
001F0000
003F0000
003E0000
003E0000
007E0000
007E0000
007C0000
ENDCHAR
STARTCHAR nye-nehas-salis
ENCODING 4762
SWIDTH 1666 0
DWIDTH 27 0
BBX 23 27 0 0
BITMAP
00003C
78007C
FC00FC
FE03FC
7FFCFE
7E7C7E
FCFC00
F8F800
00F800
00F800
00F8F0
00FFF0
0003F0
0007F0
0007E0
000FC0
000FC0
001F80
001F00
003F00
003F00
007E1C
007E7C
007EFC
007FFC
0078FE
00003E
ENDCHAR
STARTCHAR nye-nehas-rabi
ENCODING 4763
SWIDTH 1666 0
DWIDTH 27 0
BBX 23 29 0 0
BITMAP
00003C
7C00FC
7E00FC
7FFFFE
3FFCFE
3E7C78
FC7C00
70FC00
03FFF8
0F81F8
1F01F8
1F01F8
3E00F8
3E0078
7C0000
7C0000
3FFE00
1FFE00
003E00
003E00
003E00
007E00
007E00
007C00
007C00
00FC00
00FC00
00FC00
007C00
ENDCHAR
STARTCHAR nye-nehas-hamis
ENCODING 4764
SWIDTH 1666 0
DWIDTH 27 0
BBX 23 26 0 0
BITMAP
00001C
00007E
FC007C
7E1FFC
7FFCFE
7EF83C
F8F800
00F800
00F800
00F070
00FFF8
0087F0
0007F0
0007E0
000FE0
000FC0
001FC0
001FC0
003F88
003FFC
007F7C
007E7C
00FC7C
00F8F8
00FFF0
00F000
ENDCHAR
STARTCHAR nye-nehas-sadis
ENCODING 4765
SWIDTH 1466 0
DWIDTH 24 0
BBX 20 29 0 0
BITMAP
0000F0
F801F0
F803F0
F803F0
FFFF80
01F000
01F000
01FE00
03FE00
1C3E00
7C3E00
783E00
787C00
F87C00
00F860
00FFE0
00CFE0
0007E0
0007C0
000FC0
000FC0
001F80
001F80
001F80
001F00
003F00
003E00
003E00
003E00
ENDCHAR
STARTCHAR nye-nehas-sabi
ENCODING 4766
SWIDTH 1666 0
DWIDTH 27 0
BBX 23 28 0 0
BITMAP
000070
0001F0
F807F0
FFF9F0
F9F060
F1F000
01FFFC
0787BE
0F0FBE
1E0FBE
3E0FBE
3E0FBE
7C0FF8
7C0000
7C0000
7E0000
3FFC00
187C00
007C00
007C00
007C00
007C00
007C00
007C00
007C00
00F800
00FC00
007C00
ENDCHAR
STARTCHAR nye-neHes-zemede-rabi
ENCODING 4767
SWIDTH 1266 0
DWIDTH 21 0
BBX 17 26 0 0
BITMAP
700180
780780
7C0F80
7C0F80
7FFF80
03E000
03E000
01E000
1E1E00
3E1E00
7C1E00
F81E00
F80E00
F80000
F80000
F8F000
FFF000
FDF000
11F000
01F000
01F000
03E000
07FF80
7FFF80
7C0F80
F80780
ENDCHAR
STARTCHAR alef-geez
ENCODING 4768
SWIDTH 1333 0
DWIDTH 22 0
BBX 18 24 0 0
BITMAP
1F0000
1F0000
1F0000
1F0000
1F0000
0F0000
0FF800
01F000
01E000
03C000
07CE00
0FFF00
0F3F00
1F1F80
1F0F80
3E0F80
7C0F80
7C0780
FC0780
FC07C0
FC07C0
FC07C0
FC07C0
FC07C0
ENDCHAR
STARTCHAR alef-kaib
ENCODING 4769
SWIDTH 2000 0
DWIDTH 32 0
BBX 28 25 0 0
BITMAP
0F800000
1F800000
0F800000
0F800000
0F800000
0F800000
0FF80000
0FF80000
00F00000
01F00000
03E00000
03EF0000
07FF8000
0FDF8000
0F8FC1F0
1F87FFF0
1F07C7E0
3F07C3F0
3E07C3F0
7E07C1F0
7E07C000
7C07E000
7C03E000
FC03E000
FE03C000
ENDCHAR
STARTCHAR alef-salis
ENCODING 4770
SWIDTH 2066 0
DWIDTH 33 0
BBX 29 26 0 -1
BITMAP
07800000
1F800000
1F800000
1F800000
0F800000
0F800000
0FFC0000
0FFC0000
00FC0000
01F80000
03F00000
07E38000
0FFFC000
0F87C000
1F87E000
1F03E000
3F03E000
7E03E000
7E01E000
7E01E000
FC01E070
FC01E1F0
FC01F3F0
FE01FFF0
000001F8
000001F8
ENDCHAR
STARTCHAR alef-rabi
ENCODING 4771
SWIDTH 1333 0
DWIDTH 22 0
BBX 18 23 0 0
BITMAP
0F8000
1F8000
0F8000
0F8000
0F8000
0F8000
0F8000
0FF800
01F800
03F000
03E000
07DF00
0FFF80
1F9F80
3F0F80
7F07C0
FE07C0
FC07C0
FC07C0
FC07C0
FC07C0
0007C0
0007C0
ENDCHAR
STARTCHAR alef-hamis
ENCODING 4772
SWIDTH 1733 0
DWIDTH 28 0
BBX 24 23 0 0
BITMAP
038000
1F8000
0F8000
0F8000
0F8000
0F8000
0FF000
07F000
01E000
03E000
07C000
07FF00
0F9F00
1F8F80
3F0F8C
3F0FFF
7E0F9F
7E0F9F
7E0F9F
7E0F9F
FC0F9F
FE0FBE
7E0FF8
ENDCHAR
STARTCHAR alef-sadis
ENCODING 4773
SWIDTH 1266 0
DWIDTH 21 0
BBX 17 24 0 0
BITMAP
7E0000
7F0000
7F0000
7E0000
7FE000
03E000
07C000
0F8000
0FF000
01E000
03E000
07C000
07FC00
0FFE00
1F1F00
3E1F00
3E1F00
7E0F00
7C0F80
7C0F80
FC0F80
FC0F80
FC0780
7C0780
ENDCHAR
STARTCHAR alef-sabi
ENCODING 4774
SWIDTH 1266 0
DWIDTH 21 0
BBX 17 22 0 0
BITMAP
0F8000
1F8000
0F8000
0F8000
0F8000
0F8000
0FF000
00E000
01E000
03C000
07FF00
0F9F00
1F0F00
3F0F80
3E0F80
7C0F80
7C0F80
F80F80
F80000
F80000
F80000
F00000
ENDCHAR
STARTCHAR alef-zemede-geez
ENCODING 4775
SWIDTH 1733 0
DWIDTH 28 0
BBX 24 28 0 0
BITMAP
00003C
0000FC
0000FC
F807FC
FC7CFC
7FFC7C
7F7C00
FC7C00
F87C00
007FE0
0047C0
000F80
000F80
001F00
003E7C
007FFC
007C7E
00F83E
00F83E
01F83F
01F03F
03F01F
03F01F
07E01F
07E01F
07E01F
07E01F
07E01F
ENDCHAR
STARTCHAR kaf-geez
ENCODING 4776
SWIDTH 1133 0
DWIDTH 19 0
BBX 15 27 0 0
BITMAP
FC00
FC00
7C00
7C00
F800
F800
F8F0
FFFC
FE3C
1C1E
3C1E
3C1E
7C1E
7C1E
783E
783E
F83E
F87E
F87E
F87C
F87C
F87C
F87C
F87C
F87C
F87C
F87C
ENDCHAR
STARTCHAR kaf-kaib
ENCODING 4777
SWIDTH 1733 0
DWIDTH 28 0
BBX 24 27 0 0
BITMAP
7C0000
FC0000
7C0000
FC0000
FC0000
F80000
F80000
F8FC00
FF9F00
FF0F80
1E0F80
3E0F80
3E0F80
3E0F80
3E0F80
7C1F9E
7C1FFE
7C1FBE
7C1FBE
7C1F9F
7C1F0E
7C1F00
7C1F00
7C1F00
7C1F00
7E1F00
3E1F00
ENDCHAR
STARTCHAR kaf-salis
ENCODING 4778
SWIDTH 1666 0
DWIDTH 27 0
BBX 23 29 0 -2
BITMAP
3E0000
FE0000
3E0000
3E0000
3E0000
7C0000
7C0000
7C7E00
7F8F80
2F8780
0F07C0
1F07C0
1F07C0
3E07C0
3E07C0
3E07C0
3C0FC0
7C0FC0
7C0F80
7C0F80
7C0F80
7C0F80
7C0F80
7C0F9E
7C0FBE
3E0FFC
1C0FFC
00003E
00001E
ENDCHAR
STARTCHAR kaf-rabi
ENCODING 4779
SWIDTH 1266 0
DWIDTH 21 0
BBX 17 27 0 0
BITMAP
380000
FC0000
7C0000
FC0000
F80000
F80000
F80000
F8FC00
FF9F00
1F0F00
3E0F80
3E1F80
7C1F80
781F00
781F00
F81F00
F81F00
F81F00
FE1F00
7E1F00
001F00
001F00
001F00
001F00
001F00
001F00
001F00
ENDCHAR
STARTCHAR kaf-hamis
ENCODING 4780
SWIDTH 1600 0
DWIDTH 26 0
BBX 22 26 0 0
BITMAP
F80000
F80000
F80000
F80000
F80000
F80000
F8F800
FF3E00
FE1F00
1E1F00
3C1F00
7C1F00
7C1F00
7C1F00
7C1F00
FC1F00
F81F00
F81F00
F83FF8
F83F7C
F83E7C
F83E3C
F83E3C
FC3E7C
FC3E78
7C3FF0
ENDCHAR
STARTCHAR kaf-sadis
ENCODING 4781
SWIDTH 1333 0
DWIDTH 22 0
BBX 18 25 0 0
BITMAP
7C0000
FC0000
7C0000
7C0000
780000
F80000
F9FF00
FFCF80
1F07C0
3F07C0
7E07C0
7E07C0
7F07C0
1F07C0
1F0FC0
3E0FC0
3E0F80
7E0F80
7C0F80
7C0F80
7C1F00
FC1F00
F81F00
F81F00
781F00
ENDCHAR
STARTCHAR kaf-sabi
ENCODING 4782
SWIDTH 1200 0
DWIDTH 20 0
BBX 16 25 0 0
BITMAP
7C00
7C00
7C00
7C00
F800
F800
F8F8
FF3E
3E1F
1E1F
3C1F
3C1F
7C1F
7C1F
781F
F81F
F81F
F81F
F81F
F81E
F800
F800
F800
F800
F800
ENDCHAR
STARTCHAR kaf-zemede-geez
ENCODING 4784
SWIDTH 1933 0
DWIDTH 31 0
BBX 27 22 0 0
BITMAP
70000000
F8000000
F8000000
F8000000
F8000000
F0000000
FBFC0000
FE1E0000
1C1E0000
3C1E0000
3C1E3FC0
3C1FFFC0
7C1EF9E0
7C1EF9E0
7C1EFBE0
7C1EFBC0
7C1EFFC0
7C1E0000
7C1E0000
7C1E0000
7C1E0000
3C1E0000
ENDCHAR
STARTCHAR kaf-zemede-salis
ENCODING 4786
SWIDTH 2066 0
DWIDTH 33 0
BBX 29 20 0 0
BITMAP
F8000000
F8000000
F8000000
F8000000
FFFE0000
7E1E0000
1E1E3E00
1E1E1E00
3E1E3E00
3E1E3E00
3C1FFC00
3C1E7C00
7C1E7FF0
7C1E3FF0
7C1E01F0
7C1E00F8
7C1E0030
7C1E0000
3C1E0000
3C1E0000
ENDCHAR
STARTCHAR kaf-zemede-rabi
ENCODING 4787
SWIDTH 1466 0
DWIDTH 24 0
BBX 20 26 0 -4
BITMAP
FC0000
FC0000
7C0000
FC0000
FC0000
F80000
FFF800
0E3E00
1E1E00
3E1F00
7C1F00
7C1F00
7C1F00
7C1F00
FC1F00
7C1E00
003E00
00FE00
0FC3F0
0F81F0
1F01F0
1E01F0
0001F0
0001F0
0001F0
0001F0
ENDCHAR
STARTCHAR kaf-zemede-hamis
ENCODING 4788
SWIDTH 1466 0
DWIDTH 24 0
BBX 20 24 0 -4
BITMAP
F80000
780000
780000
F80000
F9F800
0E1E00
1E1E00
1C0E00
3C0F00
3C0F00
3C1F00
7C1F00
7C1E00
7C1E00
7C1F60
7C3EF0
7C3EF0
003CF0
007CF0
01FFE0
1F8000
1F8000
1F0000
1E0000
ENDCHAR
STARTCHAR kaf-zemede-kaib
ENCODING 4789
SWIDTH 1733 0
DWIDTH 28 0
BBX 24 20 0 0
BITMAP
0003E0
0003E0
F803E0
F803E0
F803C0
F9FBFE
FFFFFE
FE1E1E
1E1E1E
3C1E1F
3C1E0F
7C1E00
7C1E00
7C1E00
7C1E00
7C1E00
7C1E00
7C1E00
7C1E00
3C1F00
ENDCHAR
STARTCHAR kha-kaf-geez
ENCODING 4792
SWIDTH 1666 0
DWIDTH 27 0
BBX 23 28 0 0
BITMAP
30007C
FC00FC
FE00FC
7E7FFC
7FFCFC
7CFC7C
F8FC00
00F800
00F800
00F9FC
00FF9E
001F1E
003E1E
003E1E
007C1E
007C1E
007C3E
00F83E
00F83E
00F83E
00F83E
01F07E
01F07C
01F07C
01F07C
01F07C
01F07C
00F07C
ENDCHAR
STARTCHAR kha-kaf-kaib
ENCODING 4793
SWIDTH 2133 0
DWIDTH 34 0
BBX 30 25 0 0
BITMAP
0000F000
0001F000
F801F000
FC0FF000
7FF9F000
FCF9E000
F8F80000
00F00000
01F1F000
01FE3800
001E3C00
001E3C00
003C3C00
003C3C00
007C3C00
007C3C38
00787FF8
00F87CF8
00F878F8
00F8F87C
00F0F800
00F0F800
00F0F800
00F8F800
00F8F800
ENDCHAR
STARTCHAR kha-kaf-salis
ENCODING 4794
SWIDTH 2066 0
DWIDTH 33 0
BBX 29 26 0 -1
BITMAP
0000F000
0001F000
F801E000
FC3FF000
7FF9F000
FCF9F000
F8F80000
C0F80000
01F9F800
01FE3C00
00DE3C00
001E3C00
003C3C00
003C3C00
007C3C00
007C7C00
00FC7C00
00F87800
00F87800
00F8F800
00F8F800
00F8F8F0
00F8F9F0
00F8FFF0
00F8F9F0
000000F8
ENDCHAR
STARTCHAR kha-kaf-rabi
ENCODING 4795
SWIDTH 1666 0
DWIDTH 27 0
BBX 23 25 0 0
BITMAP
000078
0000F0
FC01F0
7C1FF0
7FF8F8
7EF870
FCF800
60F800
00FBFC
01FF1E
000F1E
001E1E
003E1E
003E1E
007C1E
007C1E
007C3E
007C3E
007C3E
007C7C
00007C
00007C
00007C
00007C
00003C
ENDCHAR
STARTCHAR kha-kaf-hamis
ENCODING 4796
SWIDTH 2066 0
DWIDTH 33 0
BBX 29 25 0 0
BITMAP
0000E000
0001E000
7001E000
F80FE000
FFF9F000
FDF8C000
F9F00000
E1F00000
01F1F000
01FE7800
001E3C00
003E3C00
003C3C00
003C7C00
007C7C00
007C7C00
00F87800
00F87FF0
00F8FFF8
00F8F8F8
00F8F8F8
00F8F8F0
00F8F9E0
00F8FF00
00F8F800
ENDCHAR
STARTCHAR kha-kaf-sadis
ENCODING 4797
SWIDTH 1600 0
DWIDTH 26 0
BBX 22 24 0 0
BITMAP
0001F0
F001F0
F807F0
FFF9F0
F8F9E0
F0F000
01F000
01F1E0
01FE38
003C3C
00783C
00F03C
01FC3C
01FC7C
007C7C
00F878
00F8F8
01F0F8
01F0F8
01F0F8
01F0F8
01F0F8
01F0F8
00F0F8
ENDCHAR
STARTCHAR kha-kaf-sabi
ENCODING 4798
SWIDTH 1600 0
DWIDTH 26 0
BBX 22 24 0 0
BITMAP
0000F0
F801E0
F803E0
FFFDF0
F9F1E0
F9F000
01F000
01F3E0
03FE3C
001E3C
003C3C
003C3C
00783C
00783C
00F87C
01F078
01F078
01F078
01F07C
01F000
01F000
01F000
01F000
01E000
ENDCHAR
STARTCHAR kha-kaf-zemede-geez
ENCODING 4800
SWIDTH 2466 0
DWIDTH 39 0
BBX 35 25 0 0
BITMAP
0000F00000
0001F00000
F801F00000
7C1FF00000
7FFDF00000
7C78E00000
F878000000
0078000000
00F8000000
00F9F80000
007E3C0000
001E3C0000
001E1E0000
001E1E3FC0
001E1FFBC0
003E1EF1E0
003E3EF1E0
003E3EF3E0
003E3EF3C0
003E3CFFC0
003E3C0000
003E3C0000
003E3C0000
003E3E0000
001E1E0000
ENDCHAR
STARTCHAR kha-kaf-zemede-salis
ENCODING 4802
SWIDTH 2533 0
DWIDTH 40 0
BBX 36 25 0 0
BITMAP
0000300000
0001F00000
7801F00000
F803F00000
7FFFF00000
7FFDF00000
7CFCE00000
F0FC000000
00F8000000
00FFF80000
007E3C0000
001E3C7E00
001E3E3E00
001E3E7E00
001E3E7C00
003E3FFC00
003E3EFC00
003E3EFFF0
003E3C7FF0
003E3C01F0
003E3C00F0
003E3C0030
003E3C0000
003E3C0000
001E3C0000
ENDCHAR
STARTCHAR kha-kaf-zemede-rabi
ENCODING 4803
SWIDTH 1866 0
DWIDTH 30 0
BBX 26 26 0 -4
BITMAP
0000F000
0001F000
7801E000
FC03E000
7DFFF000
7FF9F000
7CF8C000
E0F80000
00F80000
00FFF000
001E7800
003C7C00
007C7C00
00F87C00
00F87C00
00F87C00
00F87C00
00F87C00
0000FC00
000FFC80
001F83C0
001F03C0
003E03C0
001803C0
000003C0
000003C0
ENDCHAR
STARTCHAR kha-kaf-zemede-hamis
ENCODING 4804
SWIDTH 1933 0
DWIDTH 31 0
BBX 27 28 0 -4
BITMAP
0000F000
0001F000
F801F000
FC3FF000
7FFDF000
7C7DF000
F07C0000
00F80000
00F9F000
000E3C00
001E3C00
001E3C00
001E3C00
003E3C00
003C3C00
007C3C00
007C3C00
007C3C00
007C3EC0
007C79E0
003C79E0
0000F9E0
0000F9E0
0001FFC0
001F0000
001F0000
001E0000
001E0000
ENDCHAR
STARTCHAR kha-kaf-zemede-kaib
ENCODING 4805
SWIDTH 2266 0
DWIDTH 36 0
BBX 32 22 0 0
BITMAP
0000F000
0001F000
F801F7C0
FC1FF7E0
7FFDF3C0
F87CE3C0
F07C03C0
007DF7FE
007FFFFF
007F3C3F
001E3C1F
001E1E1F
001E1E0F
003E1E00
003E1E00
003E1E00
003E3E00
003E3E00
003E3E00
003E3E00
003E3E00
001E1E00
ENDCHAR
STARTCHAR wewe-geez
ENCODING 4808
SWIDTH 1200 0
DWIDTH 20 0
BBX 16 22 0 0
BITMAP
003C
03FE
063E
1E1F
3C1F
7C1F
7C1F
7C1F
7C1F
781F
F81F
F81F
F81F
F81E
F81E
F83E
F83E
F83C
F878
FEF0
7F00
3C00
ENDCHAR
STARTCHAR wewe-kaib
ENCODING 4809
SWIDTH 1600 0
DWIDTH 26 0
BBX 22 23 0 0
BITMAP
007C00
01FC00
067E00
1C3E00
3C3F00
781F00
781F00
781F00
F81F18
F81F78
F81FFC
F81F7C
F81F7C
F83E00
F83E00
F83E00
F83E00
F83C00
F87800
FCF000
7F0000
7E0000
3C0000
ENDCHAR
STARTCHAR wewe-salis
ENCODING 4810
SWIDTH 1600 0
DWIDTH 26 0
BBX 22 25 0 -1
BITMAP
03F800
1F3C00
3E3C00
7C3E00
7C3E00
F83E00
F83E00
F87C00
F87C00
F8F980
7FEF80
000F80
001F80
001F00
001F00
003F00
003E00
003E00
007C00
007C1C
007C3C
007C7C
007FFC
00007C
00003C
ENDCHAR
STARTCHAR wewe-rabi
ENCODING 4811
SWIDTH 1266 0
DWIDTH 21 0
BBX 17 24 0 0
BITMAP
07F800
1F3C00
3E3E00
7C3E00
7C3E00
FC3E00
F83E00
F87C00
F87C00
F8F800
F9FF80
7FEF80
000F80
001F80
001F00
001F00
003F00
003E00
007E00
007C00
00FC00
00F800
00F800
00F800
ENDCHAR
STARTCHAR wewe-hamis
ENCODING 4812
SWIDTH 1600 0
DWIDTH 26 0
BBX 22 23 0 0
BITMAP
03F800
1F3C00
3E3E00
3E3E00
7C3E00
F87E00
F87E00
F87C00
F8FC00
F9F800
7FFF80
000F80
001F80
001F00
003F00
003FF8
007E7C
007C7C
00FC7C
00F87C
00F878
01F8F0
01FFC0
ENDCHAR
STARTCHAR wewe-sadis
ENCODING 4813
SWIDTH 1066 0
DWIDTH 18 0
BBX 14 24 0 0
BITMAP
03E0
03E0
03E0
03E0
03E0
03E0
03E0
07F8
0E7C
1C7C
3C7C
7C7C
7C7C
F87C
F87C
F87C
F87C
F87C
F8F8
F8F8
F8F0
F9C0
7F00
7800
ENDCHAR
STARTCHAR wewe-sabi
ENCODING 4814
SWIDTH 1200 0
DWIDTH 20 0
BBX 16 25 0 0
BITMAP
003C
00FE
03BE
071F
0F1F
0F1F
0F1F
1F1E
1F1E
1F1C
1F3C
0FB0
0FE0
0780
0700
0E00
1C00
3C00
7800
7800
F800
F800
F800
F800
F800
ENDCHAR
STARTCHAR ayin-geez
ENCODING 4816
SWIDTH 1600 0
DWIDTH 26 0
BBX 22 17 0 3
BITMAP
000FF0
01FFF8
0F7CF8
1E7C7C
3CFC7C
7CF87C
78F87C
F8F87C
F8F87C
F8F87C
F8F87C
F8F878
F8F8F0
F9F8E0
F9FFC0
7F0000
380000
ENDCHAR
STARTCHAR ayin-kaib
ENCODING 4817
SWIDTH 2066 0
DWIDTH 33 0
BBX 29 18 0 0
BITMAP
000FF800
03FFFC00
0F1F3E00
1E1E1F00
3E3E1F00
7E3E1F00
7C3E1F00
7C3E1F00
F87C1F00
F87C3F00
F87C3E00
F87C3C00
F87C7C78
F8FC7CF8
F8FCF9F8
7CFFFFF8
3F0001F8
000000F8
ENDCHAR
STARTCHAR ayin-salis
ENCODING 4818
SWIDTH 1600 0
DWIDTH 26 0
BBX 22 25 0 -2
BITMAP
03FFF0
0F7FFC
3F7C7C
7E7C7C
7C7C7C
FC7C7C
FC7C7C
FC78F8
FC78F8
7CF9F0
7FFFE0
3EF800
00F800
00F800
01F000
01F000
01F000
01F000
01F000
01F3F0
01F3F0
01FFF0
0003F0
0003F0
0001E0
ENDCHAR
STARTCHAR ayin-rabi
ENCODING 4819
SWIDTH 1600 0
DWIDTH 26 0
BBX 22 22 0 1
BITMAP
01FFF0
0FFCF0
3E7C78
3C7C7C
7C7C7C
7C7C7C
FCF87C
F8F8F8
F8F8F8
78F9F0
7FFFE0
3EFFC0
00F800
00F800
01F800
01F000
01F000
01F000
03F000
03E000
03E000
03F000
ENDCHAR
STARTCHAR ayin-hamis
ENCODING 4820
SWIDTH 1533 0
DWIDTH 25 0
BBX 21 22 0 0
BITMAP
07FFF0
3E7DF0
3C7CF8
7C78F8
FC78F8
F8F8F8
F8F8F8
F8F8F8
F8F9F0
F8F9F0
3FFFC0
01F000
01F000
01F000
01FFC0
01E3E0
03E3E0
03E3E0
03E3E0
03E3E0
03E7E0
03FFC0
ENDCHAR
STARTCHAR ayin-sadis
ENCODING 4821
SWIDTH 2133 0
DWIDTH 34 0
BBX 30 16 0 0
BITMAP
01FF0000
0FCFFC00
1F1F3E00
3F1F3E00
7E1E3E00
7C1E3E3C
7C3E3E7C
7C3E3FFC
F83C7EFC
F87C7CFC
F87C7C3C
F87C7C00
F8FC7800
F8FCF800
78FCF000
7FFFE000
ENDCHAR
STARTCHAR ayin-sabi
ENCODING 4822
SWIDTH 1800 0
DWIDTH 29 0
BBX 25 21 0 0
BITMAP
00FFFE00
07E79F00
0FCF8F80
0F8F8F80
0F8F8F80
1F0F0F80
1F1F0F80
1F1F1F00
1F1F1F00
0FFF7E00
007FF800
01FC0000
03F00000
0FC00000
1F800000
3F000000
7E000000
7C000000
F8000000
F8000000
F8000000
ENDCHAR
STARTCHAR zey-geez
ENCODING 4824
SWIDTH 1000 0
DWIDTH 17 0
BBX 13 23 0 0
BITMAP
00F8
00F8
70F8
F0F8
F1F8
F1F8
F1F8
F7F8
F8F8
F0F8
F0F0
F1F0
F1F0
F1F0
F1F0
F1F0
F1F0
F1F0
F1F0
F1F0
F1F0
F1F0
F1F0
ENDCHAR
STARTCHAR zey-kaib
ENCODING 4825
SWIDTH 1600 0
DWIDTH 26 0
BBX 22 23 0 0
BITMAP
003E00
001F00
3E1F00
3E1F00
3E1F00
3E1E00
3E3E00
3EFE00
3F3E00
3C3E00
3C3E38
7C3FF8
7C3EF8
7C3C7C
7C7C7C
7C7C38
7C7C00
7C7C00
787C00
787C00
F87C00
F87C00
F87C00
ENDCHAR
STARTCHAR zey-salis
ENCODING 4826
SWIDTH 1533 0
DWIDTH 25 0
BBX 21 23 0 0
BITMAP
001E00
003E00
7C3E00
7C3E00
7E3E00
7E3E00
7C3E00
7CFE00
7F3E00
7C3E00
7C3E00
7C3E00
7C3E00
7C3E00
7C3E00
7C7C00
FC7C00
FC7C70
F87CF0
F87DF0
F87FF0
F879F0
0000F8
ENDCHAR
STARTCHAR zey-rabi
ENCODING 4827
SWIDTH 1000 0
DWIDTH 17 0
BBX 13 23 0 0
BITMAP
00F8
00F8
F8F8
F8F8
F8F8
F8F8
F8F8
F9F8
FEF8
F8F8
F8F8
F8F8
F8F8
F8F8
F8F8
F8F8
F8F8
00F8
00F8
00F8
00F8
00F8
00F0
ENDCHAR
STARTCHAR zey-hamis
ENCODING 4828
SWIDTH 1533 0
DWIDTH 25 0
BBX 21 22 0 0
BITMAP
003E00
3C3E00
3E3E00
3E3E00
3E3E00
3E3E00
3E7E00
3FFE00
7E3E00
7C3E00
7C7E00
7C7C00
7C7C00
FC7FF0
FC7CF8
FC7CF8
FC7CF8
F8F8F8
F8F8F0
F8F9E0
F8FFC0
F87C00
ENDCHAR
STARTCHAR zey-sadis
ENCODING 4829
SWIDTH 1533 0
DWIDTH 25 0
BBX 21 22 0 0
BITMAP
000078
0000F8
03E0F8
1FE0F8
78F0F8
78F0F8
F0F0F8
C0F3F8
00F9F8
00F1F8
01F1F0
01F1F0
01F1F0
01F1F0
01F1F0
01F3F0
03E3F0
03E3F0
03E3E0
03E3E0
03E3E0
03E3E0
ENDCHAR
STARTCHAR zey-sabi
ENCODING 4830
SWIDTH 1133 0
DWIDTH 19 0
BBX 15 22 0 0
BITMAP
003E
003E
7C3E
7C3E
7C3E
7C3E
7E3E
7FFE
7C3C
7C3C
7C7C
7C7C
7C7C
7C7C
787C
F830
F800
F800
F800
F800
F800
F800
ENDCHAR
STARTCHAR zey-zemede-rabi
ENCODING 4831
SWIDTH 1533 0
DWIDTH 25 0
BBX 21 24 0 0
BITMAP
1E0780
1F0F80
1F0F80
1F0F80
1F0F80
1F0F80
3E0F80
3E1F00
3FFF00
3E1F00
7E1F00
7E3F00
7E3F00
7C3E00
7C3E00
7C7E00
007E00
007C00
007C00
7FFFF8
7E00F8
7C00F8
7C0078
F80078
ENDCHAR
STARTCHAR zhe-zey-geez
ENCODING 4832
SWIDTH 2133 0
DWIDTH 34 0
BBX 30 22 0 0
BITMAP
000000F8
00001FF0
07C07DF8
7FE0F8F8
F9F0F8FC
F9F0F800
F8F8F800
F0FBF800
C0FDF800
00F8F800
00F9F800
00F9F800
01F9F800
01F1F000
01F1F000
01F1F000
01F1F000
01F1F000
01F1F000
01F1F000
01F1F000
01F1F000
ENDCHAR
STARTCHAR zhe-zey-kaib
ENCODING 4833
SWIDTH 2200 0
DWIDTH 35 0
BBX 31 22 0 0
BITMAP
000000FE
07F00FBE
7FFC1E3E
7C7C3E3E
7C7C3C1E
7C7C7C0C
F87C7C00
007FFC1E
007C7FFE
007C7C3E
007C7C3E
007C7C3E
007C7C0E
007C7C00
0078FC00
00F8F800
00F8F800
00F8F800
00F8F800
00F8F800
00F8F800
00F8F800
ENDCHAR
STARTCHAR zhe-zey-salis
ENCODING 4834
SWIDTH 2200 0
DWIDTH 35 0
BBX 31 24 0 0
BITMAP
0000003C
00000FFC
01C03F7C
0FF03E7E
FCF87C7E
FCF87C00
FCF87C00
F8F8FC00
F8FBFC00
00FCFC00
00F8FC00
00F8FC00
00F8FC00
00F8FC00
00F8FC00
00F8F800
00F8F800
00F87800
00F87800
00F8781E
00F8787E
00F878FC
00F87FFE
0000007E
ENDCHAR
STARTCHAR zhe-zey-rabi
ENCODING 4835
SWIDTH 2200 0
DWIDTH 35 0
BBX 31 23 0 0
BITMAP
0000003C
000003FC
02001FFC
FDF87C7E
FCF87C3E
FCF87C00
F8F87C00
F8F8FC00
00FFF800
00F8F800
00F8F800
00F8F800
00F8F800
00F8F800
00F9F800
00F9F800
00F9F800
0001F800
0001F800
0001F800
0001F000
0001F000
0000F000
ENDCHAR
STARTCHAR zhe-zey-hamis
ENCODING 4836
SWIDTH 2200 0
DWIDTH 35 0
BBX 31 22 0 0
BITMAP
0000001C
010007FC
7EF81EFC
7CF83C7E
7C7C3C3E
F87C7C00
F87C7C00
007FF800
007C7800
00FC7800
00F87800
00F8F800
00F8F800
00F8F800
00F8F800
00F8FFE0
00F8FBF0
00F8F9F0
00F8F9F0
00F8FBE0
00F8FFC0
00F8F800
ENDCHAR
STARTCHAR zhe-zey-sadis
ENCODING 4837
SWIDTH 2200 0
DWIDTH 35 0
BBX 31 28 0 0
BITMAP
F0018000
7C0F8000
7C0F8000
7C0F8000
7FFF8000
01E00000
01E00000
01E00000
01E007FC
3EF81E7C
3E7C3E7C
3E7C3C7C
3E7C7C3E
7C7C7C00
007C7C00
007C7C00
007C7C00
007FF800
007C7800
007C7800
0078F800
00F8F800
00F8F800
00F8F800
00F8F800
00F8F800
00F8F800
00F8F800
ENDCHAR
STARTCHAR zhe-zey-sabi
ENCODING 4838
SWIDTH 2133 0
DWIDTH 34 0
BBX 30 20 0 0
BITMAP
3FE007F8
7CF83FF8
7CF87CF8
F8F87CF8
F8F8F87C
00F8F800
00FFF800
00F8F800
00F9F800
00F9F000
00F9F000
01F1F000
01F1F000
01F1F000
01F00000
01F00000
03F00000
03E00000
03E00000
01E00000
ENDCHAR
STARTCHAR zhe-zey-zemede-rabi
ENCODING 4839
SWIDTH 1666 0
DWIDTH 27 0
BBX 23 24 0 0
BITMAP
FC003E
FF007E
7700FE
F781FC
F783DE
07FFC0
07C7C0
07C7C0
07C7C0
07C7C0
07C7C0
07C7C0
07C7C0
07C7C0
07C7C0
0007C0
0007C0
0007C0
0007C0
00FFFC
00F83C
00F83C
00F03C
00E01C
ENDCHAR
STARTCHAR yemen-geez
ENCODING 4840
SWIDTH 1066 0
DWIDTH 18 0
BBX 14 22 0 0
BITMAP
03F8
1E3C
3C3C
7C3C
F87C
F87C
F8F8
FBF0
FFE0
FF80
F800
7C00
7C00
7E00
3E00
3E00
7C00
7C00
7C00
7C00
7C00
7C00
ENDCHAR
STARTCHAR yemen-kaib
ENCODING 4841
SWIDTH 1266 0
DWIDTH 21 0
BBX 17 23 0 0
BITMAP
03F800
0F3C00
3E3C00
7C3C00
FC3C00
FC7C00
F8FC00
F8FC00
F9F800
FFC000
F80000
7C0000
7E1E00
3FFE00
3E3F00
3E3F00
3E1F80
3E0000
3E0000
3E0000
3E0000
3E0000
3E0000
ENDCHAR
STARTCHAR yemen-salis
ENCODING 4842
SWIDTH 1600 0
DWIDTH 26 0
BBX 22 24 0 0
BITMAP
01F800
0FF800
1E7C00
7E7C00
7C7C00
FC7C00
F8FC00
F9F800
F9F000
FFE000
FF8000
7C3F00
7C3F00
7E3F00
3E3F00
3FFE00
3F3F00
3E3FFC
3E00FC
3E00FC
3E007C
3E007C
3E0000
1C0000
ENDCHAR
STARTCHAR yemen-rabi
ENCODING 4843
SWIDTH 1533 0
DWIDTH 25 0
BBX 21 25 0 1
BITMAP
000FE0
007CF0
00F8F8
01F0F8
01E0F8
03E1F8
03E1F8
03E7F0
03EFE0
03FFC0
03FF00
03E000
03E000
03E000
03E000
01E000
01F000
01F000
00F800
7DE000
FF0000
FC0000
FC0000
FC0000
F80000
ENDCHAR
STARTCHAR yemen-hamis
ENCODING 4844
SWIDTH 1466 0
DWIDTH 24 0
BBX 20 22 0 0
BITMAP
01F800
1F3C00
7E3C00
7C3C00
F83C00
F87C00
F8F800
F9F000
FFF000
F80000
7C0000
7FF800
7E7FE0
7E7DF0
3E79F0
3E79F0
3E7DF0
3E3FF0
7E01E0
7C0000
7C0000
7C0000
ENDCHAR
STARTCHAR yemen-sadis
ENCODING 4845
SWIDTH 1666 0
DWIDTH 27 0
BBX 23 24 0 0
BITMAP
003FC0
01F1E0
03E1F0
03E1F0
03E3F0
07C3E0
07C7E0
07C7C0
07CF80
07FF00
07FE00
07C000
03C03E
03E03E
03E03E
03E03E
03F03C
3E387C
7C0FE0
7C0000
7C0000
7C0000
F80000
F00000
ENDCHAR
STARTCHAR yemen-sabi
ENCODING 4846
SWIDTH 1400 0
DWIDTH 23 0
BBX 19 23 0 0
BITMAP
07F000
1E7800
3C7800
78F800
F8F800
F8F800
F8FFE0
F9F3E0
FBE3E0
7FC3E0
7C01E0
7E0000
7E0000
3E0000
3E0000
3E0000
3E0000
3E0000
3E0000
3E0000
3E0000
3E0000
3E0000
ENDCHAR
STARTCHAR dint-geez
ENCODING 4848
SWIDTH 1466 0
DWIDTH 24 0
BBX 20 23 0 0
BITMAP
003F80
01E7C0
03C7C0
0787C0
0F87C0
0F87C0
0F8F80
0F9F00
0FBE00
0FF800
0F8000
0F8000
07C000
07C000
07E000
07E000
03F000
0FFFE0
7C03E0
7C03F0
7C01F0
F801F0
F80070
ENDCHAR
STARTCHAR dint-kaib
ENCODING 4849
SWIDTH 1933 0
DWIDTH 31 0
BBX 27 24 0 0
BITMAP
007F0000
018F8000
078F8000
078F8000
0F8F8000
0F8F8000
0F8F0000
0F8E0000
0F9C0000
07F00000
07C00000
07C3C000
0FFFE000
1987E1C0
7807FFC0
F807CFC0
F80FCFC0
F80F87E0
F00F83E0
E01F0000
001F0000
003F0000
003F0000
003F0000
ENDCHAR
STARTCHAR dint-salis
ENCODING 4850
SWIDTH 1800 0
DWIDTH 29 0
BBX 25 26 0 -1
BITMAP
000F0000
003FC000
00F3E000
01E3E000
03E3E000
03E3E000
03E3E000
03E3E000
03E7C000
03EF0000
03FC0000
03F00000
03F00000
0FFFE000
7C03E000
7C03E000
7C07E000
780FC000
E00FC000
001F8000
001F8F00
003F1F00
003FFF00
00001F00
00001F80
00000F00
ENDCHAR
STARTCHAR dint-rabi
ENCODING 4851
SWIDTH 1466 0
DWIDTH 24 0
BBX 20 24 0 0
BITMAP
001F80
007FC0
00F9E0
01F1F0
03F1F0
03E1F0
03E3E0
03E7C0
03EF80
03FF00
03F000
07F000
7DFFC0
7C07C0
7C07C0
F807C0
F007C0
000F80
000F80
000F80
001F80
001F00
001F00
001F00
ENDCHAR
STARTCHAR dint-hamis
ENCODING 4852
SWIDTH 1933 0
DWIDTH 31 0
BBX 27 24 0 0
BITMAP
003FC000
00F3E000
01E3E000
03C3F000
07C3E000
07C7E000
07C7E000
07C7C000
07CF8000
07FF0000
07FC0000
07C00000
03E00000
03F00000
01F80000
01FC0000
07FFFF00
7E007BC0
7E00FBC0
7E00FBE0
FC00FBE0
F800FBC0
0000FBC0
00007F80
ENDCHAR
STARTCHAR dint-sadis
ENCODING 4853
SWIDTH 1866 0
DWIDTH 30 0
BBX 26 23 0 0
BITMAP
000F0000
007F8000
03C7C000
0787C000
0F87C000
0F8FFF80
0F8F8F80
0F9F0F80
0FBE0FC0
0FFC07C0
0F800000
07C00000
07C00000
07C00000
07E00000
03E00000
03F00000
01F80000
0FFFF000
7C07F000
7C03F000
FC03F000
F801F800
ENDCHAR
STARTCHAR dint-sabi
ENCODING 4854
SWIDTH 1666 0
DWIDTH 27 0
BBX 23 22 0 0
BITMAP
003FC0
01E3E0
03E3E0
07C3E0
07C7E0
07C7C0
07C7C0
07CF80
07FE00
03F000
03F000
03F000
03FC00
0F83FE
3E00FE
7E007E
7C007E
F8001E
F80000
F80000
F80000
F80000
ENDCHAR
STARTCHAR dint-zemede-rabi
ENCODING 4855
SWIDTH 2066 0
DWIDTH 33 0
BBX 29 26 0 -4
BITMAP
003F0000
01FF8000
03E7C000
07C7C000
0F87C000
0F8FC000
0F8F8000
0F9F0000
0FFE0000
0FF80000
0FE00000
0FE00000
07E00000
07F00000
03F00000
03F80000
03FFE000
7FFFF000
7C03F000
FC01F000
F800F000
F07FFFF8
007FFFF8
007E01F8
00FC00F8
00F80078
ENDCHAR
STARTCHAR dhi-dint-geez
ENCODING 4856
SWIDTH 1466 0
DWIDTH 24 0
BBX 20 23 0 0
BITMAP
003F80
01E7C0
03C7C0
0787C0
0FFFC0
0FFFC0
0F8F80
0F9F00
0FBE00
0FF800
0F8000
0F8000
07C000
07C000
07E000
07E000
03F000
0FFFE0
7C03E0
7C03F0
7C01F0
F801F0
F80070
ENDCHAR
STARTCHAR dhi-dint-kaib
ENCODING 4857
SWIDTH 1933 0
DWIDTH 31 0
BBX 27 24 0 0
BITMAP
007F0000
018F8000
078F8000
078F8000
0FFF8000
0FFF8000
0F8F0000
0F8E0000
0F9C0000
07F00000
07C00000
07C3C000
0FFFE000
1987E1C0
7807FFC0
F807CFC0
F80FCFC0
F80F87E0
F00F83E0
E01F0000
001F0000
003F0000
003F0000
003F0000
ENDCHAR
STARTCHAR dhi-dint-salis
ENCODING 4858
SWIDTH 1800 0
DWIDTH 29 0
BBX 25 26 0 -1
BITMAP
000F0000
003FC000
00F3E000
01E3E000
03E3E000
03FFE000
03FFE000
03E3E000
03E7C000
03EF0000
03FC0000
03F00000
03F00000
0FFFE000
7C03E000
7C03E000
7C07E000
780FC000
E00FC000
001F8000
001F8F00
003F1F00
003FFF00
00001F00
00001F80
00000F00
ENDCHAR
STARTCHAR dhi-dint-rabi
ENCODING 4859
SWIDTH 1466 0
DWIDTH 24 0
BBX 20 24 0 0
BITMAP
001F80
007FC0
00F9E0
01F1F0
03F1F0
03FFF0
03E3E0
03E7C0
03EF80
03FF00
03F000
07F000
7DFFC0
7C07C0
7C07C0
F807C0
F007C0
000F80
000F80
000F80
001F80
001F00
001F00
001F00
ENDCHAR
STARTCHAR dhi-dint-hamis
ENCODING 4860
SWIDTH 1933 0
DWIDTH 31 0
BBX 27 24 0 0
BITMAP
003FC000
00F3E000
01E3E000
03C3F000
07FFE000
07FFE000
07C7E000
07C7C000
07CF8000
07FF0000
07FC0000
07C00000
03E00000
03F00000
01F80000
01FC0000
07FFFF00
7E007BC0
7E00FBC0
7E00FBE0
FC00FBE0
F800FBC0
0000FBC0
00007F80
ENDCHAR
STARTCHAR dhi-dint-sadis
ENCODING 4861
SWIDTH 1866 0
DWIDTH 30 0
BBX 26 23 0 0
BITMAP
000F0000
007F8000
03C7C000
0787C000
0FFFC000
0FFFFF80
0F8F8F80
0F9F0F80
0FBE0FC0
0FFC07C0
0F800000
07C00000
07C00000
07C00000
07E00000
03E00000
03F00000
01F80000
0FFFF000
7C07F000
7C03F000
FC03F000
F801F800
ENDCHAR
STARTCHAR dhi-dint-sabi
ENCODING 4862
SWIDTH 1666 0
DWIDTH 27 0
BBX 23 22 0 0
BITMAP
003FC0
01E3E0
03E3E0
07C3E0
07FFE0
07C7C0
07C7C0
07CF80
07FE00
03F000
03F000
03F000
03FC00
0F83FE
3E00FE
7E007E
7C007E
F8001E
F80000
F80000
F80000
F80000
ENDCHAR
STARTCHAR dhi-dint-zemede-rabi
ENCODING 4863
SWIDTH 2066 0
DWIDTH 33 0
BBX 29 26 0 -4
BITMAP
003F0000
01FF8000
03E7C000
07C7C000
0FFFC000
0F8FC000
0F8F8000
0F9F0000
0FFE0000
0FF80000
0FE00000
0FE00000
07E00000
07F00000
03F00000
03F80000
03FFE000
7FFFF000
7C03F000
FC01F000
F800F000
F07FFFF8
007FFFF8
007E01F8
00FC00F8
00F80078
ENDCHAR
STARTCHAR ji-dint-geez
ENCODING 4864
SWIDTH 1533 0
DWIDTH 25 0
BBX 21 30 0 0
BITMAP
000078
3C00F8
7E1FF8
3FF9F8
3E78F8
7E7800
007E00
01CF80
038F80
038F80
078F80
078F80
0F8F80
0F8F00
0F9E00
0FFE00
0F8000
078000
078000
078000
078000
07C000
03E000
03F000
0CFFE0
F803F0
F801F0
F801F0
F801F0
E000F0
ENDCHAR
STARTCHAR ji-dint-kaib
ENCODING 4865
SWIDTH 1866 0
DWIDTH 30 0
BBX 26 30 0 0
BITMAP
00000F00
7C003E00
FE007E00
7FFFFE00
7E3E3F00
FC7E1F00
F07C0000
007C0000
01E78000
03C7C000
07C7C000
0F87C000
0F87C000
0F8F8000
0F9F8000
0FFF0000
07FC0000
07C00000
07E08000
07FFC000
1807DF80
7C07FF80
7C07CF80
7C0F8780
F80F87C0
F01F8000
001F0000
001F0000
001F0000
001F0000
ENDCHAR
STARTCHAR ji-dint-salis
ENCODING 4866
SWIDTH 1733 0
DWIDTH 28 0
BBX 24 31 0 -1
BITMAP
7C001F
7E003E
7E007E
3FFFFE
7E7C7F
787C1C
00FC00
01FF00
03C780
07C7C0
0F87C0
0F87C0
0F87C0
0F8F80
0F9F80
0FFF00
0FFC00
07C000
07E000
0FFFC0
1807C0
7C0FC0
7C0F80
F80F80
F81F00
001F3F
001F7E
001FFE
00007E
00003F
00000C
ENDCHAR
STARTCHAR ji-dint-rabi
ENCODING 4867
SWIDTH 1533 0
DWIDTH 25 0
BBX 21 30 0 0
BITMAP
000038
0401F8
7C01F8
7E0FF8
7FFDF8
7CFCF8
70F800
01FE00
03DF00
078F80
0F0F80
1F0F80
1F0F80
1F1F80
1F1F00
1FFE00
1FFC00
1F8000
0FC000
0FFF80
1BCF80
780F80
F80F80
F80F80
F80F80
F01F00
E01F00
001F00
001F00
001E00
ENDCHAR
STARTCHAR ji-dint-hamis
ENCODING 4868
SWIDTH 1733 0
DWIDTH 28 0
BBX 24 29 0 0
BITMAP
F8007C
7E00FC
7FFFFC
7EFC7E
FCFC7C
00FC00
01FF00
038F80
0F8F80
0F0F80
1F0F80
1F0F80
1F1F80
1F3F00
1FFF00
1FFC00
1F8000
0F8000
0FC000
0FC000
07E000
07F000
07F000
3C3FFF
7C03CF
7C03CF
7C03CF
7803CF
0003FE
ENDCHAR
STARTCHAR ji-dint-sadis
ENCODING 4869
SWIDTH 1866 0
DWIDTH 30 0
BBX 26 29 0 0
BITMAP
0F000F00
0F801F00
0F801F00
0FFFFF00
1F1F1F80
001F0000
003FC000
00F3E000
01E3E000
03E3E000
03E3E000
03E3FFC0
03E7EFC0
03E7CF80
03FF8F80
03E407C0
03E003C0
03E00000
03E00000
03E00000
03F00000
03F00000
05F80000
0CFE0000
7C03F000
7C03F000
7C01F000
FC01F000
78007000
ENDCHAR
STARTCHAR ji-dint-sabi
ENCODING 4870
SWIDTH 1733 0
DWIDTH 28 0
BBX 24 29 0 0
BITMAP
00003E
1F007E
1F87FE
1FFE3F
1FBE3C
1F3E00
003FC0
0073E0
00E3E0
01E3E0
03E3E0
03E3E0
03E3E0
03E3E0
03E7E0
03FFC0
03FF00
03E000
01F000
01F800
03FFFC
0E007C
3C007C
7C003E
78001C
F80000
F80000
F80000
F80000
ENDCHAR
STARTCHAR ji-dint-zemede-rabi
ENCODING 4871
SWIDTH 2066 0
DWIDTH 33 0
BBX 29 35 0 -4
BITMAP
00007800
3C00F800
7E1FF800
3FF9F800
3E78F800
7E780000
007E0000
01CF8000
038F8000
038F8000
078F8000
078F8000
0F8F8000
0F8F0000
0F9E0000
0FFE0000
0F800000
07800000
07800000
07800000
07800000
07C00000
03E00000
03F00000
0CFFE000
F803F000
F801F000
F801F000
F801F000
E000F000
007FFFF8
007FFFF8
007E01F8
00FC00F8
00F80078
ENDCHAR
STARTCHAR gemel-geez
ENCODING 4872
SWIDTH 1066 0
DWIDTH 18 0
BBX 14 20 0 0
BITMAP
00F0
07F8
3CFC
7C7C
7C7C
7C7C
787C
C07C
00F8
00F8
00F8
00F0
01F0
01F0
01F0
03E0
03E0
03E0
03E0
03E0
ENDCHAR
STARTCHAR gemel-kaib
ENCODING 4873
SWIDTH 1533 0
DWIDTH 25 0
BBX 21 20 0 0
BITMAP
07F800
7CFC00
7C7C00
7C7C00
787C00
F07C00
00FC10
00F870
00FFF0
00F9F0
01F8F0
01F0F8
01F000
01F000
03F000
03E000
03E000
03E000
03E000
03E000
ENDCHAR
STARTCHAR gemel-salis
ENCODING 4874
SWIDTH 1400 0
DWIDTH 23 0
BBX 19 21 0 0
BITMAP
01F000
1FF800
7CF800
7C7C00
7C7C00
F87C00
F87C00
E0FC00
00F800
00F800
01F800
01F000
01F000
03F000
03F000
03E0E0
07E1E0
07E3E0
07FFE0
03C3E0
0001E0
ENDCHAR
STARTCHAR gemel-rabi
ENCODING 4875
SWIDTH 1600 0
DWIDTH 26 0
BBX 22 22 0 0
BITMAP
001FF0
01F8F8
01F878
01F07C
01E07C
01C07C
00007C
0000FC
0000F8
0000F8
0000F8
0001F0
0001F0
0003E0
0007E0
001FC0
1FFC00
7E0000
7E0000
7E0000
FC0000
700000
ENDCHAR
STARTCHAR gemel-hamis
ENCODING 4876
SWIDTH 1400 0
DWIDTH 23 0
BBX 19 20 0 0
BITMAP
03F000
7FF800
7C7C00
7C7C00
7C7C00
F07C00
007C00
00F800
00F800
00F800
01F000
01F000
03F000
03E3C0
07C3E0
07C3E0
0F83E0
0F83E0
0F87C0
07FF00
ENDCHAR
STARTCHAR gemel-sadis
ENCODING 4877
SWIDTH 1533 0
DWIDTH 25 0
BBX 21 21 0 0
BITMAP
000FC0
3FF9F0
7CF8F0
7CF8F8
78F8F8
F8F9F8
79F9F8
7FF1F0
0003F0
0003F0
0007E0
0007E0
0007C0
000FC0
000FC0
000F80
000F80
001F80
001F00
001F00
001F00
ENDCHAR
STARTCHAR gemel-sabi
ENCODING 4878
SWIDTH 1133 0
DWIDTH 19 0
BBX 15 24 0 0
BITMAP
07C0
07C0
07C0
07C0
07C0
07C0
07FC
7C3E
F83E
F87E
F87C
F07C
00FC
00F8
00F8
00F8
01F8
01F0
01F0
03F0
03E0
03E0
03E0
03E0
ENDCHAR
STARTCHAR gemel-zemede-geez
ENCODING 4880
SWIDTH 1866 0
DWIDTH 30 0
BBX 26 21 0 0
BITMAP
01F00000
0FF80000
39F80000
F87C0000
F87C0000
F07C3F00
E07FF780
00FFE7C0
00F9E7C0
00F9E7C0
00F9E780
00F1FF00
01F0F800
01F00000
01F00000
01E00000
03E00000
03E00000
03E00000
03E00000
03E00000
ENDCHAR
STARTCHAR gemel-zemede-salis
ENCODING 4882
SWIDTH 1933 0
DWIDTH 31 0
BBX 27 21 0 0
BITMAP
03F00000
1FF80000
7DF80000
F8FDF000
F87DF000
F07DF000
C0FDF000
00FFF000
00FDF000
00F9F000
01F1F000
01F1FFC0
03F007C0
03F007C0
03F003E0
03E003E0
03E00000
07E00000
07E00000
07E00000
03E00000
ENDCHAR
STARTCHAR gemel-zemede-rabi
ENCODING 4883
SWIDTH 1333 0
DWIDTH 22 0
BBX 18 23 0 0
BITMAP
03FE00
3E3F00
3E1F00
7E1F00
7C1F00
781F00
003F00
007E00
01FC00
7E0F80
7E07C0
FC07C0
FC07C0
F80FC0
000FC0
000F80
001F80
001F80
001F00
001F00
003E00
003E00
001E00
ENDCHAR
STARTCHAR gemel-zemede-hamis
ENCODING 4884
SWIDTH 1533 0
DWIDTH 25 0
BBX 21 23 0 -4
BITMAP
003F00
07E7C0
07E3C0
07C3C0
0F07C0
0007C0
000FC0
000F80
000F80
001F00
001F00
001E00
001E00
003FF8
003EF8
007CF8
00FCF8
01FDF0
07E7E0
FC0000
F80000
F80000
F00000
ENDCHAR
STARTCHAR gemel-zemede-kaib
ENCODING 4885
SWIDTH 1666 0
DWIDTH 27 0
BBX 23 21 0 0
BITMAP
01F000
1FFC00
7DFC00
F87DF0
F87DF0
F0FDF0
E0FDE0
00FFE0
00FFFE
01F83E
01F83E
01F01E
03F01E
03F000
03F000
03E000
03E000
07E000
07E000
07E000
07E000
ENDCHAR
STARTCHAR nge-gemel-geez
ENCODING 4888
SWIDTH 1466 0
DWIDTH 24 0
BBX 20 27 0 0
BITMAP
0000F0
0001E0
7803E0
7C03E0
7FFFE0
7EF0F0
7CF000
F8FC00
01FE00
0F3F00
1F1F00
1F1F00
1F1F00
1E1F00
301F00
003E00
003E00
003E00
003C00
007C00
007C00
007C00
00F800
00F800
00F800
00F800
00F800
ENDCHAR
STARTCHAR nge-gemel-kaib
ENCODING 4889
SWIDTH 1666 0
DWIDTH 27 0
BBX 23 28 0 0
BITMAP
0000F0
0001E0
7803E0
7C03E0
7FFFE0
7CF0F0
78F000
F0F000
01FE00
1F3F00
1F1F00
1F1F00
1E1F00
3C1F00
003F04
003E1C
003FFC
003E7C
007E3C
007C3E
007C00
007C00
00FC00
00F800
00F800
00F800
00F800
00F800
ENDCHAR
STARTCHAR nge-gemel-salis
ENCODING 4890
SWIDTH 1533 0
DWIDTH 25 0
BBX 21 28 0 0
BITMAP
0000F0
0001E0
7803E0
FC03E0
7FFFE0
7CF0F0
FCF000
00FC00
07FE00
1F3E00
1F1F00
1F1F00
3E1F00
3E1F00
383F00
003E00
003E00
007E00
007C00
007C00
00FC00
00FC00
00F838
01F878
01F8F8
01FFF8
00F0F8
000078
ENDCHAR
STARTCHAR nge-gemel-rabi
ENCODING 4891
SWIDTH 1800 0
DWIDTH 29 0
BBX 25 29 0 0
BITMAP
00000780
00000F00
03C01F00
07E01F00
03FFFF00
03E78780
07E78000
001FF000
01F8F800
01F87800
01F07C00
01E07C00
01C07C00
00007C00
0000FC00
0000F800
0000F800
0000F800
0001F000
0001F000
0003E000
0007E000
001FC000
1FFC0000
7E000000
7E000000
7E000000
FC000000
70000000
ENDCHAR
STARTCHAR nge-gemel-hamis
ENCODING 4892
SWIDTH 1533 0
DWIDTH 25 0
BBX 21 27 0 0
BITMAP
0000F0
0001E0
7803E0
FC03E0
7FFFE0
7CF0F0
FCF000
00FC00
1FFE00
1F1F00
1F1F00
1F1F00
3C1F00
001F00
003E00
003E00
003E00
007C00
007C00
00FC00
00F8F0
01F0F8
01F0F8
03E0F8
03E0F8
03E1F0
01FFC0
ENDCHAR
STARTCHAR nge-gemel-sadis
ENCODING 4893
SWIDTH 1733 0
DWIDTH 28 0
BBX 24 28 0 0
BITMAP
00000F
00001E
07803E
0FC03E
07FFFE
07CF0F
0FCF00
000FC0
3FF9F0
7CF8F0
7CF8F8
78F8F8
F8F9F8
79F9F8
7FF1F0
0003F0
0003F0
0007E0
0007E0
0007C0
000FC0
000FC0
000F80
000F80
001F80
001F00
001F00
001F00
ENDCHAR
STARTCHAR nge-gemel-sabi
ENCODING 4894
SWIDTH 1533 0
DWIDTH 25 0
BBX 21 30 0 0
BITMAP
000078
0000F0
7801F0
7C01F0
7FFFF0
7FFE78
7DCF00
FBCF00
03CF00
03CF00
03FC00
01F800
01FF00
1F0F80
3E0F80
3E1F80
3E1F00
3C1F00
003F00
003E00
003E00
003E00
007E00
007C00
007C00
00FC00
00F800
00F800
00F800
00F800
ENDCHAR
STARTCHAR teyt-geez
ENCODING 4896
SWIDTH 1733 0
DWIDTH 28 0
BBX 24 18 0 0
BITMAP
0003F0
007FFC
039E3E
0F1E3F
1E1E1F
3E1E1F
3C1E1F
7C1E1F
7C1E1F
7C1E1F
F81E1F
F81E1F
F81E1F
F81E1F
F81E1F
F81E1F
F81E1F
F81E1F
ENDCHAR
STARTCHAR teyt-kaib
ENCODING 4897
SWIDTH 2266 0
DWIDTH 36 0
BBX 32 19 0 0
BITMAP
0007FC00
007FFE00
079F3F00
071F1F00
0E1F1F80
1E1F0F80
1C1F0F8F
3C1F0F9F
7C3E0FFF
783E0F9F
783E0F8F
F83E0F87
F83E0F80
F83E0F80
F83E0F80
F83E0F80
F83E0F80
F83E0F80
F83E0F80
ENDCHAR
STARTCHAR teyt-salis
ENCODING 4898
SWIDTH 2266 0
DWIDTH 36 0
BBX 32 20 0 -1
BITMAP
0007FE00
00FFBF00
03DF1F00
071F0F80
0F1F0F80
1E1F0F80
1E1F07C0
3E1F07C0
3C1F07C0
7C1F0780
7C1F0F80
7C1F0F80
FC1F0F80
FC1F0F80
FC1F0F87
FC1F0F8F
FC1F079F
7C1F07FF
0000001F
0000000F
ENDCHAR
STARTCHAR teyt-rabi
ENCODING 4899
SWIDTH 1866 0
DWIDTH 30 0
BBX 26 22 0 1
BITMAP
00FFFF00
01FFDF00
07CFCF80
0F8F87C0
1F0F87C0
3F0F87C0
3E0F87C0
7E1F87C0
7E1F07C0
FC1F0F80
FC1F0F80
FC3E0F80
FC3E0F80
FC3F1F80
001C1F00
00001F00
00001F00
00001F00
00003E00
00003E00
00003E00
00003E00
ENDCHAR
STARTCHAR teyt-hamis
ENCODING 4900
SWIDTH 2133 0
DWIDTH 34 0
BBX 30 19 0 0
BITMAP
000FF800
00FFFE00
03FF3E00
0FBE1F00
1F3E1F00
1F3E1F00
3E3E1F00
3E3E1F00
3E3E1F00
7E3E3E00
7C3E3E00
7C3E3E00
7C3E3FF8
FC3C3E7C
FC3C3E7C
F83C3E7C
F83C3E7C
F83C3E7C
783C3FF8
ENDCHAR
STARTCHAR teyt-sadis
ENCODING 4901
SWIDTH 1533 0
DWIDTH 25 0
BBX 21 20 0 0
BITMAP
01FFC0
1EF9F0
3CF8F8
7CF8F8
F8F8F8
F9F0F8
F9F0F8
F9FCF8
F87C00
007C00
00FC00
00F800
00F800
00F800
00F800
01F800
01F800
01F000
01F000
01F000
ENDCHAR
STARTCHAR teyt-sabi
ENCODING 4902
SWIDTH 1733 0
DWIDTH 28 0
BBX 24 19 0 0
BITMAP
003FFC
00DF1E
019F1F
079F1F
0F1F1F
1E1F1F
1E1F1F
3E1F1F
3E1E1F
7C3E1F
7C3E1F
7C3E1F
7C3E1F
7C3E1F
7C1C00
F80000
F80000
F80000
780000
ENDCHAR
STARTCHAR teyt-zemede-rabi
ENCODING 4903
SWIDTH 2266 0
DWIDTH 36 0
BBX 32 21 0 0
BITMAP
0007F800
01FFFF00
07EF9F80
0FCF8FC0
1F8F87C0
3F1F87C0
3E1F87C0
7E1F07C0
7E1F07C0
FE1F0FC0
FC1F0FC0
FC1F0FC0
FC1F1FC0
FC1F1FC0
00001F80
00001F80
000FFFFF
001FC03F
001F803F
001F001F
001F001F
ENDCHAR
STARTCHAR che-teyt-geez
ENCODING 4904
SWIDTH 2466 0
DWIDTH 39 0
BBX 35 19 0 0
BITMAP
001FFF0000
00EF81E000
038F01E000
070F00F000
0E0F00F800
1C0F00F800
3C0F00F800
3C0F00F800
7C0F00F800
7C0F00F800
780F00F800
F80F00F800
FFEFFEFFE0
F9EF1FF1E0
F9EF1FF1E0
F9EF1FF1E0
F9EF1FF1E0
FBCF3DF3C0
FF8FF9FF80
ENDCHAR
STARTCHAR che-teyt-kaib
ENCODING 4905
SWIDTH 2800 0
DWIDTH 44 0
BBX 40 20 0 0
BITMAP
00027FF000
003DF07800
00C1F03E00
0381F01E00
0F01F01F00
1F01F01F0F
1E01F01FFF
3C01F01F3E
7C03E01F1F
7803E01F1F
7803E01F0E
F803E01F00
FFE3FF9FFE
F8F3E79F1E
F8F3E79F1E
F8F3E79F1E
F8F3E79F1E
F9E3EF1FFC
FFC3FC1FE0
7803E00000
ENDCHAR
STARTCHAR che-teyt-salis
ENCODING 4906
SWIDTH 2733 0
DWIDTH 43 0
BBX 39 21 0 -2
BITMAP
001FFFF000
01E1F07C00
0781F03E00
0E01F03E00
1E01F01F00
3E01F01F00
3C01F01F00
7C03F01F00
7C03E01F00
FC03E01F00
FFC3EF1E00
FFE3FFBE00
F9E3EFBE00
F9E7CFBE00
F9E7CFBE00
F9E7CF3E00
FFC7FE3FFC
FF87FC3FFC
000000007C
000000007C
000000003E
ENDCHAR
STARTCHAR che-teyt-rabi
ENCODING 4907
SWIDTH 2400 0
DWIDTH 38 0
BBX 34 21 0 1
BITMAP
0007FFE000
00FFFFF800
0F83E03C00
1F03C03C00
3E07CE3E00
7FE7FF3E00
7FF7DF3E00
F9FF9F7E00
F9FF9F7C00
F9EFBE7C00
FFEFFCFC00
FF8F80F800
000001F800
000001FF80
000001FFC0
000003E7C0
000003C7C0
000007C7C0
000007CF80
000007FF00
000003E000
ENDCHAR
STARTCHAR che-teyt-hamis
ENCODING 4908
SWIDTH 2933 0
DWIDTH 46 0
BBX 42 19 0 0
BITMAP
0007FFC00000
00FFC0F00000
0387C0F80000
0707C0783F80
0E07C079F780
1C07C07FF7C0
3C07C07DF7C0
7C07C07DF780
7C07807CFF00
7807807C0000
7807807CE000
FFE7FF7FF000
F9F78F78F000
F9F78F78F000
F9F78F78F000
F9E78F79E000
FBC7FE7FC000
FF87FC7C0000
7C0380000000
ENDCHAR
STARTCHAR che-teyt-sadis
ENCODING 4909
SWIDTH 2266 0
DWIDTH 36 0
BBX 32 22 0 0
BITMAP
000FFF00
01F7C7C0
0707C3C0
1E0783C0
3C0F87FF
7FEF07DF
79EF079F
F9EF079F
F9FFC79E
FBCFC7FC
FFC787F0
FF078000
000F8000
000F0000
000F1800
001FFC00
001E7C00
001E7C00
001E7C00
001E7800
003FF000
001F0000
ENDCHAR
STARTCHAR che-teyt-sabi
ENCODING 4910
SWIDTH 2533 0
DWIDTH 40 0
BBX 36 21 0 0
BITMAP
00087FF000
007FFFF800
0187C07800
0707C07C00
0E07FE7FE0
0E07DF79F0
1E0F9F79F0
1E0F9E79E0
3E0F9E79C0
3C0FF87F80
7C0FE07C00
7C00000000
7C00000000
7FE0000000
7DE0000000
7DE0000000
7DE0000000
7DE0000000
FDC0000000
7F80000000
7C00000000
ENDCHAR
STARTCHAR che-teyt-zemede-rabi
ENCODING 4911
SWIDTH 2600 0
DWIDTH 41 0
BBX 37 22 0 0
BITMAP
007FFFC000
01F9FFF000
07C1E0F800
0F81E03C00
1F03E03C00
3F03E03E00
3E03E03E00
7E03E03E00
7C03C03E00
7C07C03E00
FFF7C03E00
FFF7FE3E00
F8F7FF3E00
F8F79F7C00
F8F79F7C00
FFF79F7C00
7FC7FE7C00
0007FC7C00
0000FFFFF8
0000FC00F8
0000FC00F8
0000FC00F8
ENDCHAR
STARTCHAR peyt-geez
ENCODING 4912
SWIDTH 1133 0
DWIDTH 19 0
BBX 15 26 0 0
BITMAP
0F80
0F80
0F80
0F80
0F80
0FE0
3FF0
7CF8
78F8
F8F8
F8F8
F8F8
F8F8
FDF0
FFE0
3FC0
0FC8
1FFC
3F7E
7E3E
7C3E
F83E
F83E
F03E
F83E
F81E
ENDCHAR
STARTCHAR peyt-kaib
ENCODING 4913
SWIDTH 1666 0
DWIDTH 27 0
BBX 23 26 0 0
BITMAP
01E000
01E000
01E000
01E000
01E000
03E000
0FFC00
1F3E00
1E3E00
3E3E00
3E3E00
3E3E00
3E7C00
1FF800
03F03C
0FFEFC
0FFF3C
1F9F3E
3F1F3E
3E1F00
7E1F00
F81F00
F81F00
F81F00
F81F00
F81F00
ENDCHAR
STARTCHAR peyt-salis
ENCODING 4914
SWIDTH 1600 0
DWIDTH 26 0
BBX 22 27 0 -1
BITMAP
03E000
07E000
07E000
07C000
07C000
07F800
1FFC00
3E7C00
3C7C00
7C7C00
7C7C00
7C7C00
7EFC00
7FF800
3FF000
07E400
0FFE00
1FFE00
3F3F00
7E1F00
FC1F00
F80F18
F80F38
F80FF8
F80FF8
F80FF8
00007C
ENDCHAR
STARTCHAR peyt-rabi
ENCODING 4915
SWIDTH 1200 0
DWIDTH 20 0
BBX 16 26 0 0
BITMAP
01F0
01F0
01F0
01F0
01F0
03F8
0FFC
1F3E
1E3E
3E3E
3E3E
3E7C
1FFC
01F8
03F0
0FFE
1F9F
3F1F
7E1F
FE1F
FC1F
FC1F
001F
001F
001F
001F
ENDCHAR
STARTCHAR peyt-hamis
ENCODING 4916
SWIDTH 1533 0
DWIDTH 25 0
BBX 21 24 0 0
BITMAP
07C000
07C000
07C000
07C000
07E000
0FF800
3E7C00
3C7C00
7C7C00
7C7C00
7CF800
7EF800
3FF000
07E000
0FFC00
1FFC00
3F7C00
3E3FF0
7C3E78
F83C78
F83C78
F83C78
F83C70
F83FC0
ENDCHAR
STARTCHAR peyt-sadis
ENCODING 4917
SWIDTH 1600 0
DWIDTH 26 0
BBX 22 24 0 0
BITMAP
03E000
03E000
03E000
03E000
03F000
07F800
0F7C18
1E7FF8
1E7CF8
3E7CFC
3E7C7C
1FF800
1FF000
03F000
03E000
07FE00
0F1F00
3E1F00
7E1F00
7C1F00
FC1F00
F81F00
F81F00
F81F00
ENDCHAR
STARTCHAR peyt-sabi
ENCODING 4918
SWIDTH 1200 0
DWIDTH 20 0
BBX 16 23 0 0
BITMAP
00F0
00F0
01F0
01F0
01F0
07FC
1F3E
1E3E
3E3E
3E3E
3E3C
1FFC
03F8
07E0
0FFE
1FFE
3F3F
7E1F
FC1F
F81F
F800
F800
F800
ENDCHAR
STARTCHAR peyt-zemede-rabi
ENCODING 4919
SWIDTH 1733 0
DWIDTH 28 0
BBX 24 31 0 -4
BITMAP
00F800
00F800
00F800
00F800
00F800
01FC00
03FE00
07FF00
0F9F00
1F1F00
1F1F00
1F3F00
1FFE00
03FE00
03F800
0FE000
1FF800
3FFE00
7E3E00
7C1F00
FC1F00
FC1F00
F81F00
001F00
001F00
001F00
001F00
3FFFFF
3E001F
3E001F
78000F
ENDCHAR
STARTCHAR sedey-geez
ENCODING 4920
SWIDTH 1200 0
DWIDTH 20 0
BBX 16 22 0 0
BITMAP
0FF8
3CF8
78F8
F8F8
F8F8
F8F8
F9F0
7FF0
03E0
07C0
0FFC
0FFC
1F3E
3E3E
3E1E
7E1E
7C1F
7C1F
F81F
F81F
F80F
780F
ENDCHAR
STARTCHAR sedey-kaib
ENCODING 4921
SWIDTH 1600 0
DWIDTH 26 0
BBX 22 23 0 0
BITMAP
03F000
1FF800
7CF800
FCF800
F8F800
F8F800
F8F000
F9F000
7FE000
03E008
07C078
0F8FF8
1FFCF8
1F7C7C
3E7E7C
7E3E38
7C3E00
FC3E00
F83E00
F81E00
F81E00
F81F00
F81E00
ENDCHAR
STARTCHAR sedey-salis
ENCODING 4922
SWIDTH 1600 0
DWIDTH 26 0
BBX 22 23 0 0
BITMAP
00F000
1FF800
7EFC00
7CFC00
FC7C00
FCF800
FCF800
FFF800
7FF000
03E000
07C000
0FFC00
1FFE00
1F7E00
3E3E00
7E3F00
7E1F00
FC1F38
FC1F78
FC1FF8
FC1FF8
FC1FF8
00007C
ENDCHAR
STARTCHAR sedey-rabi
ENCODING 4923
SWIDTH 1200 0
DWIDTH 20 0
BBX 16 23 0 0
BITMAP
07FC
0FFC
3F3E
7E3E
7C3E
7C3E
7C3E
7FFC
1FF8
03F0
07F0
0FE0
1FFE
3FFE
7E3F
7E1F
FC1F
FC1F
FC1F
FC1F
001F
001F
001F
ENDCHAR
STARTCHAR sedey-hamis
ENCODING 4924
SWIDTH 1533 0
DWIDTH 25 0
BBX 21 22 0 0
BITMAP
07F000
1FF800
3E7C00
7C7C00
7C7C00
7C7C00
7CF800
7FF000
0FE000
07E000
0FC000
1FFC00
1FFC00
3F3FE0
3E3FF8
7E3E78
7C3E78
FC3E78
FC3E78
F83E70
F83FC0
781F00
ENDCHAR
STARTCHAR sedey-sadis
ENCODING 4925
SWIDTH 1666 0
DWIDTH 27 0
BBX 23 23 0 0
BITMAP
00E000
0FF800
3CF81C
7CFFFC
7CF87C
7CF87C
7CF87E
7FF03E
3FF000
03E000
07C000
0FF800
0FFC00
1F7E00
3E3E00
3E3F00
7C3F00
FC3F00
F81F00
F81F00
F81F00
F81F80
F80F00
ENDCHAR
STARTCHAR sedey-sabi
ENCODING 4926
SWIDTH 1200 0
DWIDTH 20 0
BBX 16 21 0 0
BITMAP
03FC
0F9F
1F9F
1F1F
1F1F
1F1F
1F3E
0FFE
00FC
01F8
03F0
07E0
0FFE
1FBE
3F1F
7E1F
FC1F
F81F
F81F
F800
7800
ENDCHAR
STARTCHAR sedey-zemede-rabi
ENCODING 4927
SWIDTH 1733 0
DWIDTH 28 0
BBX 24 25 0 -4
BITMAP
03FE00
07FF00
0F9F00
1F1F00
1F1F00
1F3F00
1FFE00
03FE00
03F800
0FE000
1FF800
3FFE00
7E3E00
7C1F00
FC1F00
FC1F00
F81F00
001F00
001F00
001F00
001F00
3FFFFF
3E001F
3E001F
78000F
ENDCHAR
STARTCHAR sepa-geez
ENCODING 4928
SWIDTH 1000 0
DWIDTH 17 0
BBX 13 23 0 0
BITMAP
00E0
07F0
1CF8
3CF8
7CF8
7CF8
78F8
F8F8
F8F8
FBF8
FCF8
F8F8
F8F8
F8F8
F8F0
F8F0
F9F0
F9F0
F9E0
F9C0
FB80
FC00
7800
ENDCHAR
STARTCHAR sepa-kaib
ENCODING 4929
SWIDTH 1533 0
DWIDTH 25 0
BBX 21 22 0 0
BITMAP
00F800
0FF800
1E7C00
3E7C00
7C7C00
7C7C00
7C7C00
FC7C00
F9FC00
FE7C70
F87FF0
F87DF0
F87CF8
F8FCF8
F8F800
F8F800
F8F000
F8F000
F8E000
FB8000
7C0000
380000
ENDCHAR
STARTCHAR sepa-salis
ENCODING 4930
SWIDTH 1266 0
DWIDTH 21 0
BBX 17 23 0 0
BITMAP
0FF000
3DF800
78F800
F8FC00
F8FC00
FFFC00
F8F800
F9F800
F9F800
7FF800
7FF000
03F000
03F000
03F000
07E000
07E000
07E000
0FE380
0FC780
0FC780
0FFF80
07E780
000380
ENDCHAR
STARTCHAR sepa-rabi
ENCODING 4931
SWIDTH 1066 0
DWIDTH 18 0
BBX 14 23 0 0
BITMAP
0FE0
3DF0
78F8
F8FC
F8FC
FFFC
F8F8
F9F8
F9F8
7FF0
7FF0
31F0
03F0
03E0
03E0
07E0
07E0
07C0
0FC0
0FC0
0FC0
0FC0
0F80
ENDCHAR
STARTCHAR sepa-hamis
ENCODING 4932
SWIDTH 1333 0
DWIDTH 22 0
BBX 18 23 0 0
BITMAP
0FE000
3DF000
78F800
F8FC00
F8FC00
FFFC00
F8F800
F8F800
F9F800
7FF000
7FF000
11F000
03F000
03F000
03E000
07F000
07FF80
07EFC0
0FC7C0
0FC7C0
0FCF80
0FDF00
0FF800
ENDCHAR
STARTCHAR sepa-sadis
ENCODING 4933
SWIDTH 1066 0
DWIDTH 18 0
BBX 14 22 0 0
BITMAP
01E0
01E0
01E0
01E0
03E0
03E0
07F8
1F7C
3E7C
7E7C
7CFC
7F7C
7C7C
FC7C
F87C
F87C
F878
F8F8
F8F0
F8F0
FFC0
7E00
ENDCHAR
STARTCHAR sepa-sabi
ENCODING 4934
SWIDTH 1333 0
DWIDTH 22 0
BBX 18 24 0 0
BITMAP
001F00
00FF80
01E7C0
03E7C0
07FFC0
07C7C0
07C7C0
07C7C0
07C780
07CF80
07CF00
07FE00
01F000
03E000
07C000
0F8000
0F0000
1E0000
3E0000
7C0000
7C0000
F80000
F80000
F80000
ENDCHAR
STARTCHAR af-geez
ENCODING 4936
SWIDTH 1533 0
DWIDTH 25 0
BBX 21 23 0 0
BITMAP
007800
00F800
00F800
00F800
00F800
00F800
01F000
03E000
07C000
0FC000
0F8000
1F0000
3FF800
3FF800
78F800
F8F8F0
F8F9F0
F8FBF0
F8FFF0
FD81F8
FE00F8
7C0000
700000
ENDCHAR
STARTCHAR af-kaib
ENCODING 4937
SWIDTH 1666 0
DWIDTH 27 0
BBX 23 25 0 0
BITMAP
00F800
00FC00
007C00
00FC00
00F800
01F000
03F000
0FE000
1FC000
3F8000
7FFC00
7E7C0C
FC7C3C
F87CFC
F8FFFC
FFF87E
3BF03E
07E000
07E000
0FC000
0FC000
1FC000
1F8000
1F8000
0F0000
ENDCHAR
STARTCHAR af-salis
ENCODING 4938
SWIDTH 1600 0
DWIDTH 26 0
BBX 22 23 0 0
BITMAP
003C00
00FE00
007E00
007C00
007C00
00FC00
00F800
01F000
03F000
07E000
0FC000
1F8000
1F7000
3FF8FC
7FF8FC
7CF8FC
F8F8FC
F8F8F8
F8F8F8
F9FFF0
FF0000
FE0000
780000
ENDCHAR
STARTCHAR af-rabi
ENCODING 4939
SWIDTH 1600 0
DWIDTH 26 0
BBX 22 25 0 1
BITMAP
00F800
00FC00
00FC00
00FC00
00F800
01F000
07E000
0FE000
1F8000
7F0000
7FF000
FFF800
F8F800
F8F800
F8F83C
7FFFFC
01F8FC
01F8FC
01F8FC
01F07C
01F000
01F000
01F000
01F000
01F000
ENDCHAR
STARTCHAR af-hamis
ENCODING 4940
SWIDTH 1866 0
DWIDTH 30 0
BBX 26 23 0 0
BITMAP
007C0000
007E0000
007E0000
007E0000
007C0000
00FC0000
00F80000
01F00000
03E00000
07C00000
0F800000
1F000000
3FF00000
3FF80000
7CF80000
F8F80000
F8F87F00
F8FFE780
F9FFE7C0
FF07E7C0
7C07E7C0
0003EF80
0001F800
ENDCHAR
STARTCHAR af-sadis
ENCODING 4941
SWIDTH 1600 0
DWIDTH 26 0
BBX 22 21 0 0
BITMAP
03FFF8
0FC1F8
1F01F8
3E00F8
7C0078
7C0000
FFF000
F8F800
F8F800
F8F800
FCF800
7FFFFC
00F8F8
00F8F8
00F8F8
00F07C
01F000
01F000
01F000
01F000
01E000
ENDCHAR
STARTCHAR af-sabi
ENCODING 4942
SWIDTH 1600 0
DWIDTH 26 0
BBX 22 21 0 0
BITMAP
0007F8
03FFFC
0F1F7C
1E1F7C
1E1F7C
3C1FF8
3C0000
7C0000
7C0000
7C0000
7C0000
FFF800
F9F800
F9F800
F8F800
F8FC7C
F9FFFC
FDF07C
7F807C
7C007C
30003C
ENDCHAR
STARTCHAR af-zemede-rabi
ENCODING 4943
SWIDTH 1666 0
DWIDTH 27 0
BBX 23 29 0 -4
BITMAP
003C00
007C00
007C00
007C00
00FC00
01F800
03F000
03E000
0FC000
1F8000
3FFC00
7FFC00
7C7C00
7E7C00
7E7C1E
7E7FFE
3FFCFE
1E7C7E
007C7E
007C3E
007C00
007C00
007C00
007DF8
00FFF8
FF01F8
FC00F8
FC0078
F80000
ENDCHAR
STARTCHAR psa-geez
ENCODING 4944
SWIDTH 1666 0
DWIDTH 27 0
BBX 23 23 0 0
BITMAP
00000E
000FFC
3FFC3C
F87C3C
F87C3C
F87C1C
F07C00
E07C00
007C00
007C00
007C00
00F800
00F800
00F800
00F800
00F800
00F800
00F000
01F000
01F000
01F000
01F000
00F000
ENDCHAR
STARTCHAR psa-kaib
ENCODING 4945
SWIDTH 1733 0
DWIDTH 28 0
BBX 24 23 0 0
BITMAP
00000F
0003FF
7FFC1F
7C7C1F
7C7C0F
7C7C07
F87C00
E07C00
00FC00
00F800
00F800
00F83C
00F8FC
00FFFC
00F8FC
00F87C
00F800
00F800
00F800
00F800
00F800
00F800
00F000
ENDCHAR
STARTCHAR psa-salis
ENCODING 4946
SWIDTH 1800 0
DWIDTH 29 0
BBX 25 24 0 -1
BITMAP
0000FF00
3FFF3F00
FFFE3F00
FE3E3F00
7C7C1F80
7C7C0F00
F07C0000
007C0000
007C0000
007C0000
007C0000
00780000
00F80000
00F80000
00F80000
00F80000
00F80000
00F80000
00F83E00
00F87E00
00FFFE00
00F07E00
00007E00
00003C00
ENDCHAR
STARTCHAR psa-rabi
ENCODING 4947
SWIDTH 2066 0
DWIDTH 33 0
BBX 29 23 0 1
BITMAP
0001FFF8
01FFF1F8
07F3F1F8
07E3F1F8
07E3E1F8
07C3E0F8
0F83E000
0003E000
0003E000
0003E000
0007E000
0007E000
0007C000
0007C000
0007C000
000F8000
001F0000
03F80000
FE000000
FC000000
FC000000
FC000000
F0000000
ENDCHAR
STARTCHAR psa-hamis
ENCODING 4948
SWIDTH 1800 0
DWIDTH 29 0
BBX 25 22 0 0
BITMAP
0001FF00
7FFFFF00
7C3E1F00
7C7E1F00
787E0F80
F07C0000
007C0000
007C0000
007C0000
00FC0000
00F80000
00F80000
00F80000
00F80000
01FFE000
01F9F000
01F1F000
01F1F000
01F1F000
01F3F000
01FFE000
00F00000
ENDCHAR
STARTCHAR psa-sadis
ENCODING 4949
SWIDTH 1733 0
DWIDTH 28 0
BBX 24 21 0 0
BITMAP
07FFFE
FCFC3E
F8FC3E
F8F83F
F0F81F
E0F800
00F800
007F00
003F00
003F00
003E00
003E00
003E00
003E00
003E00
007C00
007C00
007C00
007C00
007C00
007C00
ENDCHAR
STARTCHAR psa-sabi
ENCODING 4950
SWIDTH 2000 0
DWIDTH 32 0
BBX 28 22 0 0
BITMAP
00FFFFF0
0FC3E3F0
07C3E1F0
07C3E0F0
0F83E000
0F07C000
0007C000
000F8000
001F8000
003F0000
007E0000
00FC0000
03F00000
07E00000
0FC00000
1F800000
3E000000
7C000000
F8000000
F8000000
F8000000
F8000000
ENDCHAR
STARTCHAR psa-zemede-rabi
ENCODING 4951
SWIDTH 1866 0
DWIDTH 30 0
BBX 26 26 0 -3
BITMAP
000001C0
0001FF80
07FF8780
1F0F8780
1F0F8780
1F0F8380
1E0F8000
1C0F8000
000F8000
000F8000
000F8000
001F0000
001F0000
001F0000
001F0000
001F0000
001F0000
001E0000
003E0000
003E0000
003E0000
003E0000
7FFFFE00
7C003E00
7C003E00
F0001E00
ENDCHAR
STARTCHAR re-zemede-ya
ENCODING 4952
SWIDTH 1733 0
DWIDTH 28 0
BBX 24 27 0 0
BITMAP
1E0000
1F000F
0F801F
0F801F
0FFFFF
003FFE
003F00
003F00
003F00
007E00
00FE00
00FC00
01F800
03E000
07C000
0F8000
3F0000
3F0180
7E0FC0
FE0FC0
FC07C0
FC0F80
FC0F80
FC3E00
7FF000
3F0000
1C0000
ENDCHAR
STARTCHAR me-zemede-ya
ENCODING 4953
SWIDTH 2266 0
DWIDTH 36 0
BBX 32 32 0 -1
BITMAP
3C000000
3E001E00
1F003E00
1F003E00
1FFFFE00
007FFC00
000F8000
000F8000
00FFFFC0
0FFFFFE0
1EF9F1F0
7CF9F1F0
7CF9F1F0
F8F9F3E0
F9F9F3E0
F9F1FFE0
F9F0FFC0
FBF007C0
FFC007C0
78000FC0
00000F80
00000F80
00001F80
00001F00
00003F00
00003F00
00007E1F
00007E7E
00007FFE
00003FFE
0000007F
0000003E
ENDCHAR
STARTCHAR fe-zemede-ya
ENCODING 4954
SWIDTH 1666 0
DWIDTH 27 0
BBX 23 27 0 0
BITMAP
3C0000
3E001E
1F003E
1F003E
1FFFFE
007FFC
007E00
007C00
007C00
00FC00
00F800
01F000
03F000
07E000
0FC000
1F8000
1F7000
3FF8FC
7FF8FC
7CF8FC
F8F8FC
F8F8F8
F8F8F8
F9FFF0
FF0000
FE0000
780000
ENDCHAR
STARTCHAR neus-neteb
ENCODING 4961
SWIDTH 400 0
DWIDTH 8 0
BBX 4 10 0 2
BITMAP
E0
F0
F0
E0
00
E0
F0
F0
F0
E0
ENDCHAR
STARTCHAR ebiy-neteb
ENCODING 4962
SWIDTH 800 0
DWIDTH 14 0
BBX 10 10 0 2
BITMAP
E1C0
F3C0
F3C0
E1C0
0000
E1C0
F3C0
F3C0
F3C0
E1C0
ENDCHAR
STARTCHAR netela-serez
ENCODING 4963
SWIDTH 1000 0
DWIDTH 17 0
BBX 13 12 0 1
BITMAP
FFF8
0700
0780
0780
0780
0700
0000
0000
0000
0700
0780
0780
ENDCHAR
STARTCHAR neus-serez
ENCODING 4964
SWIDTH 1000 0
DWIDTH 17 0
BBX 13 13 0 0
BITMAP
FFF8
0700
0780
0780
0780
0700
0000
0000
0000
0700
0780
0780
F8F8
ENDCHAR
STARTCHAR asteamro
ENCODING 4965
SWIDTH 666 0
DWIDTH 12 0
BBX 8 14 0 0
BITMAP
E0
F0
F0
F0
E0
00
FF
00
00
E0
F0
F0
F0
E0
ENDCHAR
STARTCHAR ebiy-serez
ENCODING 4966
SWIDTH 933 0
DWIDTH 16 0
BBX 12 14 0 0
BITMAP
0E00
0F00
0F00
0F00
0E00
0000
FFF0
0000
0000
0E00
0F00
0F00
0F00
0E00
ENDCHAR
STARTCHAR seleste-neteb
ENCODING 4967
SWIDTH 400 0
DWIDTH 8 0
BBX 4 19 0 2
BITMAP
70
F0
F0
F0
70
00
00
E0
F0
F0
F0
E0
00
00
70
F0
F0
F0
70
ENDCHAR
STARTCHAR sebate-neteb
ENCODING 4968
SWIDTH 1133 0
DWIDTH 19 0
BBX 15 17 0 3
BITMAP
07C0
07C0
07C0
E38E
F01E
F01E
F39E
E7CE
07C0
07C0
E38E
F01E
F01E
F39E
E7CE
07C0
07C0
ENDCHAR
STARTCHAR ahadu
ENCODING 4969
SWIDTH 1133 0
DWIDTH 19 0
BBX 15 24 0 0
BITMAP
0FFE
3C1E
3C1E
0000
0F80
0FC0
0FC0
1F80
1FE0
3E78
3E38
7C3C
7C3C
F83C
F83C
F03C
F078
F078
FFF0
0000
07F0
F870
E070
E008
ENDCHAR
STARTCHAR kileitu
ENCODING 4970
SWIDTH 1133 0
DWIDTH 19 0
BBX 15 24 0 0
BITMAP
0FFE
3C1E
3C1E
3180
0E78
1E38
3C7C
3C7C
7CF8
79F0
7FF0
7BE0
7800
7800
7FF0
39F0
3CF0
3CF0
1DF0
0300
0000
7FF8
7878
F018
ENDCHAR
STARTCHAR selestu
ENCODING 4971
SWIDTH 1133 0
DWIDTH 19 0
BBX 15 24 0 0
BITMAP
1FFC
3C1C
3C1E
0000
003E
3FFE
3E3E
3C1E
3C0E
3C00
3C00
3C00
3C00
3C00
7C00
7C00
7C00
7800
7800
0000
0200
7DF0
F8F0
F070
ENDCHAR
STARTCHAR arbaitu
ENCODING 4972
SWIDTH 1066 0
DWIDTH 18 0
BBX 14 23 0 0
BITMAP
3FF8
3E7C
381C
0000
0100
1EF0
1E78
3C78
7C78
7C78
7C78
78F8
78F8
78F8
79F0
39F0
39E0
0F80
0000
0200
7DF0
70F0
F070
ENDCHAR
STARTCHAR hamistu
ENCODING 4973
SWIDTH 1200 0
DWIDTH 20 0
BBX 16 24 0 0
BITMAP
3FFE
3C1E
3C1E
03E0
07E0
07E0
07E0
07E0
0FFE
1F1F
3F0F
7E07
7C00
F800
F800
F01E
F03E
F83E
FFFE
0000
03B8
7C78
7838
701C
ENDCHAR
STARTCHAR sidistu
ENCODING 4974
SWIDTH 1066 0
DWIDTH 18 0
BBX 14 24 0 0
BITMAP
7FF8
F038
F018
0000
FFC0
FFE0
F7E0
E7E0
0FC0
0FC0
1F80
1F80
1F00
3FF8
3E7C
3C7C
7CFC
7CF8
7FF8
0000
3FF0
F1F0
F0F0
E030
ENDCHAR
STARTCHAR sebatu
ENCODING 4975
SWIDTH 1200 0
DWIDTH 20 0
BBX 16 24 0 0
BITMAP
1FFE
1C1E
3C0E
0000
03F0
7FF0
F8F8
F9F8
F1F0
03F0
03F0
07F0
07E0
07E0
0FC0
0F8F
1F8F
1FFF
0FFF
000F
0000
3FFE
3C1E
380E
ENDCHAR
STARTCHAR sementu
ENCODING 4976
SWIDTH 1400 0
DWIDTH 23 0
BBX 19 24 0 0
BITMAP
01FF80
078780
078780
000000
000000
3FFFE0
3CF9E0
7CF1E0
71F060
01F000
01F000
01F000
01F000
01F000
01F000
01FF80
7FFF80
7C0780
780780
E00180
000000
0FFF00
1F0F00
1E0700
ENDCHAR
STARTCHAR tesatu
ENCODING 4977
SWIDTH 1200 0
DWIDTH 20 0
BBX 16 24 0 0
BITMAP
0FFE
1E1E
1C0E
0000
0000
0C1F
1E0F
1E0F
3E3F
3FCF
3E1F
3C1F
3C1F
3C1F
3C1E
3C3C
7C7C
7C78
3DF0
0200
0000
7FF8
7078
E018
ENDCHAR
STARTCHAR asertu
ENCODING 4978
SWIDTH 1000 0
DWIDTH 17 0
BBX 13 24 0 0
BITMAP
7FF8
7878
7038
0000
07C0
07C0
07C0
07C0
0FC0
0F80
0F80
0F00
0F00
1F00
1F00
1F00
1E00
1E00
0000
0000
0000
FFF0
F070
E030
ENDCHAR
STARTCHAR isra
ENCODING 4979
SWIDTH 1400 0
DWIDTH 23 0
BBX 19 28 0 0
BITMAP
00FF00
0F8F00
0F0E00
1E0F00
1C0000
0001E0
07FFE0
F9F1E0
F1F1E0
F3E1E0
E3E000
07E000
07C000
0F8000
1F7800
1FFC00
3E7C00
3C3E00
7C3E00
781E00
F81E00
F81E00
F81E00
701C00
000000
7FFC00
781E00
780C00
ENDCHAR
STARTCHAR selasa
ENCODING 4980
SWIDTH 1400 0
DWIDTH 23 0
BBX 19 26 0 0
BITMAP
003FE0
07C1E0
07C1E0
078000
000000
000180
003FE0
0079E0
78F1E0
79F1E0
F1F1E0
F1F1E0
F1F1E0
F1F1E0
F1E1E0
F1E1E0
F3E3E0
F3E3E0
F3E3C0
7F83C0
0003C0
000000
001F00
1FEF00
1E0300
180000
ENDCHAR
STARTCHAR arba
ENCODING 4981
SWIDTH 1133 0
DWIDTH 19 0
BBX 15 27 0 0
BITMAP
007E
1FFE
1E1E
1E0E
0000
061E
3E1E
3E1E
3E3E
3E3E
3E3C
3E7C
1FF8
1CF8
00F8
01F0
01F0
01F0
03F0
03F0
03F0
03F0
0000
07F0
7CF8
7878
F000
ENDCHAR
STARTCHAR hamsa
ENCODING 4982
SWIDTH 1466 0
DWIDTH 24 0
BBX 20 26 0 0
BITMAP
001FC0
07FFC0
07C1C0
0F01C0
060000
0001F0
3FFFF0
7CF8F0
78F870
71F000
007C00
007C00
00F800
00F800
01F000
01F000
03FFC0
FFFFC0
F807C0
F007C0
F001C0
000000
003F00
3FDF00
3E0F00
3C0100
ENDCHAR
STARTCHAR sisa
ENCODING 4983
SWIDTH 1466 0
DWIDTH 24 0
BBX 20 27 0 0
BITMAP
000FC0
0FFFC0
0F81C0
0F01C0
0C0000
000000
0078F0
7CF8F0
7CF8F0
7CFDF0
79FFE0
79F3E0
F9F3E0
FBE3E0
7FC7C0
3C0780
000780
000780
000F80
000F80
000F80
000F00
000000
000000
3FFE00
780E00
780F00
ENDCHAR
STARTCHAR seba
ENCODING 4984
SWIDTH 1533 0
DWIDTH 25 0
BBX 21 25 0 0
BITMAP
03FFC0
07E3C0
07C1C0
070000
0007E0
01FEF0
07FEF8
1F1EF0
3E3EF0
7C3FF0
7C1FC0
7C0000
F80000
F80000
F80000
F81E00
F83E00
F87E00
FDFE00
7FFE00
000000
03FE00
3FDE00
3C1E00
3C0000
ENDCHAR
STARTCHAR semanya
ENCODING 4985
SWIDTH 1866 0
DWIDTH 30 0
BBX 26 25 0 0
BITMAP
0001F800
01FEF800
01E07800
03E00000
00000000
000FFFC0
07FFE780
78F3E7C0
78F3C3C0
E1F3C000
01F3C000
01E3C000
01E78000
03E78000
03EF0000
03EF0000
03EF0000
03EF0000
03EF0000
03EF0000
00000000
03FFE000
07C1E000
07C0E000
07000000
ENDCHAR
STARTCHAR tesa
ENCODING 4986
SWIDTH 1066 0
DWIDTH 18 0
BBX 14 25 0 0
BITMAP
0018
3FF8
3838
381C
0000
1FF0
F9F0
F1F0
F3E0
C3E0
00F8
01F0
01F0
03F0
03E0
03E0
07E0
07E0
07C0
07C0
0000
0FF0
F8F0
F030
E000
ENDCHAR
STARTCHAR meet
ENCODING 4987
SWIDTH 1133 0
DWIDTH 19 0
BBX 15 23 0 0
BITMAP
1FFE
3E1E
3C1E
0000
07F0
1C3C
3C7C
7C78
3CF0
3FE0
3E00
3F00
1F00
1F00
1F00
1F00
1E00
1F00
0000
0060
FFF0
F0F0
E030
ENDCHAR
STARTCHAR ilf
ENCODING 4988
SWIDTH 1466 0
DWIDTH 24 0
BBX 20 23 0 0
BITMAP
0FFF80
0F03C0
1E03C0
000000
0C0180
73CE70
F3FE70
F3DEF0
F3DEE0
F71EE0
F81F00
F0FE00
FF1E00
F01E00
F01E00
F01E00
F01E00
F01E00
000000
07EC00
781E00
F01E00
E00E00
ENDCHAR
ENDFONT
